<svg xmlns="http://www.w3.org/2000/svg" width="270" height="40" viewBox="0 0 270 40">
  <defs>
    <style>
      .cls-1 {
        fill: #090909;
        fill-rule: evenodd;
      }
    </style>
  </defs>
  <path id="施工事例" class="cls-1" d="M82.56,18.693L78.4,19.973V17.054c1.32-.36,1.6-0.56,1.6-0.96,0-.48-0.68-0.8-4.239-1.44l-0.2.24a7.009,7.009,0,0,1,.56,3.279v2.48l-0.24.08-3.719.88,1.12,1.6,2.84-1.08v5.759l-0.08,5.359c0,3.079.8,4.039,7.4,4.039,6.079,0,7.719-.28,8.839-0.6,0.96-.28,1.36-0.72,1.36-1.24a0.956,0.956,0,0,0-.64-0.88,1.209,1.209,0,0,1-.96-1.12c0-.88.04-1.88,0.08-3.319l-0.96-.12c-0.48,2.4-.92,3.639-1.4,4.2-0.52.64-1.24,0.88-6.559,0.88-4.479,0-4.8-.44-4.8-2.04v-11.6l4.159-1.28v6.4l-0.2,6.119,2.2-.08,0.4-.4L84.8,26.492v-7l4.439-1.36v8.119c0,0.96-.12,1.16-0.76,1.16a10.917,10.917,0,0,1-2.64-.4l-0.2.96c1.68,0.76,1.92,1.16,2.08,2.36,2.84-.12,3.879-1.12,3.879-3.759l-0.08-3.919v-4c0.88-.44,1.44-0.76,1.44-1.16,0-.48-0.4-0.8-2.36-2.24h-0.56l-1.16,1.52L84.8,18.014V13.454c1.2-.32,1.56-0.52,1.56-0.92,0-.52-0.72-0.72-4.079-1.28l-0.2.24a7.924,7.924,0,0,1,.48,3.2v4Zm-9.038-8.679V9.055L71.042,6.5h-0.56l-1.72,2.16h-2.68V4.176c1.48-.36,1.84-0.56,1.84-1.04,0-.68-0.8-0.92-4.839-1.6l-0.2.24a6.806,6.806,0,0,1,.64,3.359V8.655H60.483l-3.2-.24,0.44,1.84,2.76-.24h2.48c-0.04,14.358-1.6,20.557-6.159,26.8l0.76,0.6c4.8-4.959,7-10.078,7.719-19.677h3.8a84.917,84.917,0,0,1-.92,13.878c-0.4,2.28-1.4,2.879-2.6,2.879a22.031,22.031,0,0,1-3.639-.48l-0.16.96c2.24,0.76,2.6,1.2,2.72,2.52,3.6,0,5.559-1.36,6.159-5.439a110.869,110.869,0,0,0,.96-13.758c1.04-.48,1.28-0.68,1.28-1.04,0-.4-0.2-0.68-2.36-2.36h-0.56l-1.2,1.48h-3.4c0.12-2.12.12-4.239,0.16-6.359h8Zm4.639-1.68A27.852,27.852,0,0,0,79.88,4.3c1.24-.12,1.64-0.36,1.64-0.8,0-.48-0.68-0.96-3.959-2l-0.32.16a10.29,10.29,0,0,1-.24,2.2,24.7,24.7,0,0,1-4.879,10.638l0.72,0.64A22.453,22.453,0,0,0,77.4,9.695H93.838V8.735l-2.72-2.8h-0.56l-1.88,2.4H78.16Zm35.921,23.8H100.523l-3.279-.24,0.48,1.84,2.8-.24h33.435v-0.96l-3.04-3.159h-0.56l-2.2,2.76H116.881V8.455h14.037V7.5L128,4.456h-0.56l-2.12,2.64H103.8l-3.28-.24L101,8.7l2.8-.24h10.278V32.131Zm42.88-15.317h8.4v1.24l2.24-.08,0.4-.4-0.12-3.559v-1.56c1-.4,1.36-0.68,1.36-1.08,0-.48-0.44-0.84-2.56-2.44h-0.56l-1.28,1.48h-7.878V7.575h16.157V6.615l-2.72-2.8h-0.56l-1.919,2.4H156.961V3.976c1.479-.36,1.839-0.56,1.839-1.04,0-.64-0.76-0.92-4.839-1.52l-0.2.24a6.806,6.806,0,0,1,.64,3.359v1.2H141.323l-3.279-.24,0.44,1.84,2.839-.24H154.4v2.839h-7.639a36.47,36.47,0,0,0-3.319-1.6l-0.24.24a11.513,11.513,0,0,1,.48,3.839v1.72l-0.16,3.679,2.239-.08,0.4-.4v-1H154.4v3.239h-9.078l-3.28-.24,0.48,1.84,2.8-.24H154.4v3.2H140.763l-3.279-.24,0.48,1.84,2.8-.24H154.4v3.36h-9l-3.28-.24,0.48,1.84,2.8-.24h9v3a1.086,1.086,0,0,1-1.24,1.24,30.443,30.443,0,0,1-4.719-.52l-0.2.92c2.76,0.92,3.319,1.52,3.439,2.96,3.96-.12,5.44-1.32,5.44-3.719L157,30.691h8.838v2.04l2.4-.08,0.4-.4-0.24-5.239v-1.04h5.919v-0.96l-2.4-2.48h-0.56l-1.6,2.08H168.4v-2.6c0.96-.36,1.119-0.64,1.119-1,0-.48-0.159-0.76-2.279-2.4h-0.56l-1.24,1.44h-8.478V16.814Zm0-1.36V11.775h8.4v3.679h-8.4Zm-2.56,0h-8.239V11.775H154.4v3.679Zm2.56,5.959h8.878v3.2h-8.878v-3.2Zm0,7.919v-3.36h8.878v3.36h-8.878Zm36-16.237a56.65,56.65,0,0,0,1.76-6.679h7.439V5.456l-2.4-2.48H199.2l-1.64,2.08h-7l-3.28-.24,0.44,1.84,2.84-.24h1.359c-0.639,6.519-3.2,13.158-6.878,17.557l0.8,0.56A22.9,22.9,0,0,0,190,19.493a14.085,14.085,0,0,1,2.559,3.719c0.36,1,.68,1.36,1.4,1.36a1.191,1.191,0,0,0,.56-0.2A32.345,32.345,0,0,1,184.6,36.81l0.68,0.68c8.438-5.239,12.4-11.838,14.557-22.556,1.04-.28,1.48-0.48,1.48-0.88s-0.6-.92-2.6-2.4h-0.56l-1.119,1.44h-4.08Zm4.32,1.36a41.744,41.744,0,0,1-2.2,8.558c-0.24-2.08-2.92-3.6-4.559-4.4a30.41,30.41,0,0,0,1.959-4.159h4.8ZM183.563,1.7a15.338,15.338,0,0,1-.6,3.719,41.711,41.711,0,0,1-6.8,14.718l0.76,0.6a39.4,39.4,0,0,0,4.119-5.4l-0.08,6.359v7.2l-0.2,9.359,2.2-.08,0.4-.4V14.134c1.44-.28,1.68-0.52,1.68-0.92s-0.56-.72-2.16-1.12a57.625,57.625,0,0,0,3.159-7.559c1.32-.24,1.68-0.4,1.68-0.88,0-.6-0.72-0.96-3.879-2.08Zm28.2,2.8c1.48-.36,1.84-0.56,1.84-1.04,0-.68-0.64-0.92-4.719-1.6l-0.2.24a6.806,6.806,0,0,1,.64,3.359V34.011a1.073,1.073,0,0,1-1.2,1.24,27.7,27.7,0,0,1-4.48-.52l-0.2.92c2.6,0.92,3.24,1.36,3.24,2.719,3.879-.12,5.279-1.32,5.279-3.719l-0.2-10.358V4.5ZM202.88,30.051l2.239-.08,0.4-.4-0.12-8.878V9.015c1.48-.36,1.72-0.56,1.72-1.04,0-.68-0.8-0.92-4.559-1.6l-0.2.24A6.806,6.806,0,0,1,203,9.975V20.693Z" transform="translate(-0.203 0.109)"/>
</svg>
