<svg xmlns="http://www.w3.org/2000/svg" width="260" height="40" viewBox="0 0 260 40">
  <defs>
    <style>
      .cls-1 {
        fill: #090909;
        fill-rule: evenodd;
      }
    </style>
  </defs>
  <path id="最新情報" class="cls-1" d="M83.559,13.654v1.32l2.28-.08,0.4-.4-0.2-5.6V5.3c1.12-.56,1.36-0.8,1.36-1.12s-0.36-.72-2.48-2.32h-0.56l-1.28,1.48H66.722a34.542,34.542,0,0,0-3.439-1.76l-0.24.24a10.4,10.4,0,0,1,.6,4V8.895l-0.2,6.4,2.24-.08,0.4-.4v-1.16H83.559Zm0-1.36H66.082v-3.2H83.559v3.2Zm0-4.559H66.082V4.7H83.559v3.04ZM61.483,17.974V32.051l-0.24.04a25.273,25.273,0,0,1-3.48.08l-0.2.28c1.16,3.08,1.6,3.639,2.08,3.639,0.44,0,.64-0.48.76-1.48a76.551,76.551,0,0,0,10.918-2.879v0.48l-0.16,5.959,2.2-.08,0.4-.4L73.6,32.211V22.653h4a23.445,23.445,0,0,0,4.279,8.519,27.34,27.34,0,0,1-7.319,5.639l0.56,0.76a26.823,26.823,0,0,0,8-5,26.548,26.548,0,0,0,6.519,4.719c0.4-1,1-1.48,2.52-1.52l0.2-.84a24.75,24.75,0,0,1-7.679-3.919,22.637,22.637,0,0,0,4.239-7.8c1.28-.36,1.56-0.56,1.56-0.92,0-.4-0.48-0.92-2.44-2.36h-0.56l-1.2,1.36H73.6V17.974H92.638v-0.96l-2.6-2.48h-0.56l-1.76,2.08H59.643l-3.279-.24,0.44,1.84,2.84-.24h1.84Zm2.28,0h7.559v3.359H63.763V17.974Zm7.559,4.719v3.519H63.763V22.693h7.559Zm-7.559,4.879h7.559v3.039q-3.779.78-7.559,1.2V27.572Zm22.676-4.919a20.558,20.558,0,0,1-3.319,7,20.639,20.639,0,0,1-3-3.959,29.4,29.4,0,0,1-1.36-3.04h7.679Zm18.123,0.76a28.206,28.206,0,0,1-8.6,10.678l0.6,0.76a25.66,25.66,0,0,0,8.918-8.359l-0.32,11.558,2.28-.08,0.4-.4-0.16-7.479V26.412a12.91,12.91,0,0,1,3.519,3.839c0.52,0.92.84,1.36,1.52,1.36a1.2,1.2,0,0,0,1.16-1.36c0-1.56-1.96-3.559-6.2-4.919v-1.92h7.879v-0.96l-2.48-2.64h-0.56l-1.76,2.24h-3.079v-2c1.32-.32,1.72-0.56,1.72-1,0-.52-0.6-0.76-4.24-1.16l-0.2.24a7.349,7.349,0,0,1,.44,2.919v1H99.883l-3.279-.24,0.48,1.84,2.8-.24h4.679Zm4.36-7.679a45.383,45.383,0,0,0,3.159-4.639c1.12,0,1.6-.12,1.6-0.56,0-.48-0.56-0.76-3.639-2l-0.2.16a6.511,6.511,0,0,1-.24,1.68,34.509,34.509,0,0,1-1.96,5.359H99.283L96,15.494l0.44,1.84,2.84-.24h17.2v-0.96l-2.319-2.32H113.6l-1.56,1.92h-3.119ZM105,6.615H99.883L96.6,6.375l0.44,1.84,2.84-.24h15.958V7.015l-2.56-2.48h-0.56l-1.56,2.08h-3.679V3.776c1.48-.36,1.84-0.56,1.84-1.04,0-.68-0.64-0.92-4.76-1.6l-0.2.24A6.818,6.818,0,0,1,105,4.736v1.88Zm14.838,0.24a42.924,42.924,0,0,0,9.518-1.68,21.609,21.609,0,0,0,2.36.28c0.68,0,.88-0.16.88-0.56,0-.52-0.76-1.08-3.6-2.84h-0.28a9.592,9.592,0,0,1-2.079,1.44A25.6,25.6,0,0,1,120.4,5.7c-1.12-.64-2.24-1.12-3.48-1.68l-0.24.24a10.944,10.944,0,0,1,.6,4.079v10.8c0,9.558-1.759,14.118-6.319,18.317l0.72,0.64c5.559-4.119,8.159-8.958,8.159-19.237V15.294h5.479V28.972l-0.2,9.358,2.56-.08,0.4-.4-0.2-8.878V15.294h5.839v-0.96l-2.68-2.8h-0.56l-1.76,2.4H119.84V6.855Zm-20.077,2.4a9.409,9.409,0,0,1,2.12,4.519c0.2,0.96.6,1.44,1.24,1.44a1.173,1.173,0,0,0,1.16-1.4c0-1.96-1.16-3.6-3.72-5.119Zm53.878,21.276h12.038v3.639a0.728,0.728,0,0,1-.88.88,24.577,24.577,0,0,1-3.959-.36l-0.2.92c2.519,0.6,2.839,1.12,2.959,2.48,3.72-.12,4.72-1.16,4.72-3.239l-0.12-6V21.773c1.039-.36,1.359-0.64,1.359-1,0-.48-0.44-0.84-2.559-2.44h-0.56l-1.2,1.48H154.161c-1.08-.6-2.12-1.12-3.28-1.68l-0.24.24a10.935,10.935,0,0,1,.52,3.919v8.4l-0.2,7.479,2.28-.08,0.4-.4V30.531Zm0-6.2v-3.16h12.038v3.16H153.641Zm0,1.36h12.038v3.479H153.641V25.692Zm4.6-15.277h-4.359l-3.28-.24,0.48,1.84,2.8-.24h4.359v3.519h-6.719l-3.279-.24,0.48,1.84,2.8-.24h21.437v-0.96l-2.48-2.559h-0.56l-1.679,2.16H160.68V11.775h9.4v-0.96l-2.2-2.28h-0.56l-1.48,1.88H160.68V7.175h11.2V6.215l-2.4-2.48h-0.56l-1.6,2.08H160.68V3.7c1.48-.32,1.839-0.52,1.839-0.92,0-.64-0.879-0.88-4.719-1.48l-0.2.24a6.158,6.158,0,0,1,.64,3.2v1.08h-5.759l-3.279-.24,0.48,1.84,2.8-.24h5.759v3.239Zm-16.957,28,2.44-.08,0.4-.4-0.2-8.879V4.136c1.479-.4,1.839-0.6,1.839-1.12,0-.68-0.76-0.92-4.719-1.6l-0.2.24a6.806,6.806,0,0,1,.64,3.359V29.052Zm-3.359-28.235c-0.12,3.08-.76,4.839-1.6,5.759a2.779,2.779,0,0,0-.92,1.88,1.27,1.27,0,0,0,1.36,1.32c1.839,0,2.559-2.04,2.559-4.639a18.952,18.952,0,0,0-.44-4.279Zm7.238-1.16a10.529,10.529,0,0,1,1.64,3.839c0.28,1.28.6,1.72,1.24,1.72a1.408,1.408,0,0,0,1.44-1.64c0-1.44-1.08-2.76-3.6-4.559Zm39.121,13.878v5.079h-3.92l-3.279-.24,0.48,1.84,2.8-.24h3.92v3.279l-0.2,5.759,2.439-.08,0.4-.4-0.2-5.279V29.332h7.559v-0.96l-2.12-2.36H191.6l-1.559,1.96h-3.32V22.893H195.2v-0.96l-1.96-2.2h-0.56l-1.4,1.8h-3.039a35.647,35.647,0,0,0,3-4.2c1.2,0.08,1.6-.12,1.6-0.44,0-.36-0.24-0.6-3.479-1.84l-0.24.16a5.7,5.7,0,0,1-.32,1.8,38.044,38.044,0,0,1-1.72,4.519H179.4l-3.279-.24,0.48,1.84,2.8-.24h4.88Zm24.635-6-1.2,1.4H198.48V5.416h9.239v5.959a1,1,0,0,1-1.04,1.24,26.049,26.049,0,0,1-4.4-.56l-0.2.92c2.759,0.92,3.319,1.32,3.439,2.68,2.879-.04,4.759-0.84,4.759-3.36l-0.16-4.2V6.175c1.04-.36,1.6-0.6,1.6-1.12,0-.4-0.52-0.92-2.6-2.52h-0.56l-1.279,1.52h-8.2a29.505,29.505,0,0,0-3.359-1.72l-0.24.24a12.893,12.893,0,0,1,.6,5v21.6l-0.2,9.2,2.4-.08,0.4-.4-0.2-8.678V19.653h2.08a30.542,30.542,0,0,0,3.479,10.038l0.36,0.6a23.431,23.431,0,0,1-5.279,6l0.56,0.8a23.927,23.927,0,0,0,5.839-5.039A30.908,30.908,0,0,0,210.6,37.41c0.68-1.12,1.24-1.32,2.64-1.28l0.28-.84a21.335,21.335,0,0,1-6.639-5.2,30.3,30.3,0,0,0,3.479-9.678c1.36-.48,1.64-0.64,1.64-1.12,0-.44-0.36-0.76-2.52-2.4h-0.56Zm-1.039,2.76a36.164,36.164,0,0,1-2.4,8.519,27.544,27.544,0,0,1-3.759-8.519h6.159ZM184.2,13.294h-5.04l-3.279-.24,0.48,1.84,2.8-.24H195v-0.96l-2.2-2.16h-0.56l-1.32,1.76h-4.279V8.535H194V7.575l-1.96-2.12h-0.56l-1.4,1.72h-3.44V3.616c1.64-.4,1.88-0.56,1.88-1,0-.64-0.68-0.8-4.679-1.4l-0.2.24A6.375,6.375,0,0,1,184.2,4.7v2.48h-3.56l-3.279-.24,0.48,1.84,2.8-.24h3.56v4.759Zm-4.36,2.36a10.9,10.9,0,0,1,1.64,4.039c0.2,1.08.56,1.36,1.2,1.36a1.33,1.33,0,0,0,1.24-1.52c0-1.24-1.24-2.919-3.44-4.519Z" transform="translate(-4.953 0.234)"/>
</svg>
