<svg xmlns="http://www.w3.org/2000/svg" width="270" height="40" viewBox="0 0 270 40">
  <defs>
    <style>
      .cls-1 {
        fill: #090909;
        fill-rule: evenodd;
      }
    </style>
  </defs>
  <path id="お問い合わせ" class="cls-1" d="M36.2,31.651a7.969,7.969,0,0,0,5.519,2.2c3.919,0,7.719-3.319,7.719-8.439,0-4.2-2.84-7.039-7.719-7.039-3.2,0-7.359,1.32-12.2,3.879,0-2.32.04-5.079,0.12-8.2,1.64-.56,3.32-1.2,4.959-1.88,1.4-.6,1.68-0.96,1.68-1.52s-0.8-1.08-1.76-1.08a3.913,3.913,0,0,0-1.8.72,25.866,25.866,0,0,1-3,1.44c0.08-1.04.2-2.16,0.28-3a10.792,10.792,0,0,1,.28-1.6,4.427,4.427,0,0,0,.2-1.2,1.975,1.975,0,0,0-1.16-1.56,6.122,6.122,0,0,0-2.879-.68,6.213,6.213,0,0,0-1.48.16l-0.08.88c1.92,0.44,2.6,1.24,2.6,2.76,0,1.8-.04,3.439-0.08,5.039a12.43,12.43,0,0,1-3.959.84,4,4,0,0,1-3-1.28l-0.64.6c0.84,1.88,2.2,2.76,3.519,2.76a14.228,14.228,0,0,0,4.079-.68c-0.04,2.88-.04,5.8-0.04,8.719-3.759,2.2-7.919,5.359-7.919,7.519,0,0.8.48,1.6,1.88,1.96a8.338,8.338,0,0,1,3.4,1.48,8.254,8.254,0,0,1,.6.64,1.232,1.232,0,0,0,.96.56,3.42,3.42,0,0,0,2.56-1.4c0.72-.84.8-2.08,0.8-3.639,0-.76-0.04-1.68-0.08-2.719-0.04-1-.04-2.28-0.04-3.759,4.639-2.719,8.878-4.039,11.6-4.039,3.519,0,5.479,2.08,5.479,5.159,0,4.039-2.68,6.559-5.559,6.559a9.529,9.529,0,0,1-4.279-1.08Zm-8.838-2.08c0,2.6-.48,3.239-1.4,3.239a7.19,7.19,0,0,1-2.44-.6c-0.96-.4-1.56-0.76-1.56-1.32,0-1.28,2.52-3.479,5.4-5.4v4.079Zm13.4-19.6a11.306,11.306,0,0,1,5.279,1.68,0.953,0.953,0,0,1,.52.72,0.8,0.8,0,0,1-.44.6c-0.88.64-1.72,1.16-2.68,1.88l0.64,0.8c1.4-.6,2.24-0.92,2.8-1.12a3.972,3.972,0,0,1,1.2-.24,3.426,3.426,0,0,1,.72.16,2.845,2.845,0,0,0,.8.16,0.945,0.945,0,0,0,.92-1.12c0-1.04-.8-2.16-2.24-3.039A10.85,10.85,0,0,0,40.8,9.095ZM88.6,15.414V33.771c0,1.12-.28,1.32-0.92,1.32a33.362,33.362,0,0,1-4.639-.48l-0.12.96c2.32,0.72,3,1.44,3,2.64,3.879-.04,5.359-1,5.359-4.039l-0.12-9.238V5.336c1.16-.4,1.44-0.56,1.44-1,0-.36-0.76-1.04-2.64-2.4H89.4L88.119,3.5H80.36c-1.08-.6-2.12-1.08-3.359-1.64l-0.24.24a9.9,9.9,0,0,1,.52,3.879v5.759l-0.2,5.4,2.2-.08,0.4-.4v-1.24H88.6Zm0-6.8H79.68V4.856H88.6V8.615Zm0,1.36v4.079H79.68V9.975H88.6ZM69.082,15.414v1.88l2.2-.08,0.4-.4-0.2-5.2V5.456c1.08-.36,1.44-0.64,1.44-1s-0.4-.76-2.52-2.32h-0.56l-1.2,1.36H61.283c-1.16-.6-2.24-1.08-3.479-1.64l-0.24.24a10.4,10.4,0,0,1,.6,4V28.012L57.924,38.49l2.36-.08,0.4-.4v-22.6h8.4Zm0-1.36h-8.4V9.975h8.4v4.079Zm0-5.439h-8.4V4.856h8.4V8.615Zm10.4,22.356v2.44l2.28-.08,0.4-.4L82,26.852v-3.6c0.88-.44,1.24-0.68,1.24-1.08s-0.72-.96-2.4-2.24H80.28l-1.24,1.4H69.962c-1.04-.56-1.96-0.96-3.2-1.56l-0.24.24a12.828,12.828,0,0,1,.4,4v2.72l-0.16,6.879,2.24-.08,0.4-.4v-2.16H79.48Zm0-1.36H69.4V22.693H79.48v6.919Zm41.16-15.8c4.439,1.36,6.8,4.2,7.6,9,0.319,2.16.719,2.8,1.679,2.8a1.932,1.932,0,0,0,1.76-2.2,9.574,9.574,0,0,0-.44-2.44c-1.32-4.479-5.039-7.479-10.278-8ZM97.684,7.175c2.24,2,2.479,2.84,2.479,5.6,0,0.8-.04,3.519.04,6.719a26.369,26.369,0,0,0,.6,5.8,13.089,13.089,0,0,0,2.44,4.759c1.6,2.08,3.359,3.279,4.6,3.279a0.885,0.885,0,0,0,1-.92,2.875,2.875,0,0,0-.16-0.88,3.17,3.17,0,0,1-.2-1,5.755,5.755,0,0,1,.2-1.44,18.049,18.049,0,0,1,1.48-3.479c0.839-1.52,2.039-3.36,3.119-4.959l-0.84-.64a37.884,37.884,0,0,0-3.679,4.679c-1.2,1.88-1.76,2.84-2.16,3.519a0.949,0.949,0,0,1-.6.64,1.5,1.5,0,0,1-.84-0.6,10.382,10.382,0,0,1-2.039-3.679,25.521,25.521,0,0,1-.64-6.719,35.379,35.379,0,0,1,.4-5.079,9.246,9.246,0,0,0,.08-1.36,4.106,4.106,0,0,0-1.68-3.08,11.827,11.827,0,0,0-3-1.8Zm49.278,16.117c-1.16-.68-2.28-1.2-3.559-1.8l-0.24.24a12.648,12.648,0,0,1,.56,4.039v5.439l-0.24,7.279,2.479-.08,0.4-.4v-2.24h16.077v2.52l2.52-.08,0.4-.4-0.24-7.119V25.332c1.12-.4,1.52-0.68,1.52-1.08,0-.48-0.48-0.84-2.8-2.56h-0.56l-1.319,1.6h-15Zm-0.6,1.36h16.077v9.758H146.362V24.652Zm6.319-23.6a8.867,8.867,0,0,1-1.36,3.359,39.147,39.147,0,0,1-15.757,13.918l0.44,0.84c1.44-.56,2.919-1.16,4.319-1.84a37.626,37.626,0,0,0,8.479-5.839,41.548,41.548,0,0,0,5.879-6.8,39.651,39.651,0,0,0,16.037,13.878,3.064,3.064,0,0,1,2.84-2.24l0.16-.88C166,13.294,160.04,9.575,155.641,3.976c0.32,0,.64.04,1.039,0.04a0.623,0.623,0,0,0,.76-0.6c0-.68-1.039-1.16-4.479-2.52ZM163.6,17.614v-0.96l-2.679-2.6h-0.56l-1.92,2.2H148.4l-3.28-.24,0.48,1.84,2.8-.24h15.2ZM197,34.651c8.8-1.96,14.8-6.959,14.8-13.918,0-5.239-3.8-8.878-9.319-8.878a16.792,16.792,0,0,0-8.038,2.2,35.854,35.854,0,0,0-6.159,4.319l0.04-1.36c0.36-.92.68-1.72,1.04-2.559a3.815,3.815,0,0,0,.36-1.32,1.983,1.983,0,0,0-.8-1.48,1.882,1.882,0,0,0-.48-0.36c0.04-1.16.12-2.28,0.2-3.119a6.454,6.454,0,0,1,.4-1.96,3.038,3.038,0,0,0,.24-1.04,2.234,2.234,0,0,0-.92-1.44,3.888,3.888,0,0,0-2.64-.88,5.737,5.737,0,0,0-1.759.28l-0.08.88a2.927,2.927,0,0,1,1.839.8,2.761,2.761,0,0,1,.6,1.92v1.4c0,0.76,0,1.72-.04,3a20.159,20.159,0,0,0-4.719,2.24,11.477,11.477,0,0,0-3.679,3.519l0.56,0.68a30.105,30.105,0,0,1,3.839-2.48,13.911,13.911,0,0,1,3.679-1.4,0.317,0.317,0,0,1,.32.2c0,1.04,0,2.04-.04,3.039a18.154,18.154,0,0,1-1.959,3.48c-1.92,2.88-3.72,5.239-5.56,7.719a3.232,3.232,0,0,0-.919,1.92,1.174,1.174,0,0,0,1.119,1.24c0.56,0,.84-0.24,1.68-1.52,0.28-.44.56-0.84,0.84-1.28a35.944,35.944,0,0,1,2.68,3.279,5.144,5.144,0,0,1,1.079,2.48c0.12,0.84.44,1.6,1.2,1.6a2.124,2.124,0,0,0,1.56-1.48,5.634,5.634,0,0,0,.52-2.44c0-.64-0.04-1.32-0.08-2.04-0.12-2.04-.16-4.2-0.16-6.319,0-.96.04-1.88,0.04-2.8a33.126,33.126,0,0,1,6.919-5.279,13.748,13.748,0,0,1,6.759-1.76,6.4,6.4,0,0,1,6.718,6.6c0,6.079-4.6,10.678-12.158,13.4Zm-10.758-4.439c0,0.52-.08.8-0.32,0.8a1.62,1.62,0,0,1-.76-0.56,41.546,41.546,0,0,0-3.079-2.84c1.32-1.92,2.719-3.759,4.159-5.6v8.2Zm40.6-12.478c-1.32.32-2.479,0.64-3.679,0.96a9.715,9.715,0,0,1-2.6.48,4.666,4.666,0,0,1-2.839-1.2l-0.52.72a6.924,6.924,0,0,0,1.839,2.48,3,3,0,0,0,1.84.96,2.671,2.671,0,0,0,1.32-.52,7.384,7.384,0,0,1,2.04-1c0.759-.24,1.679-0.52,2.6-0.8-0.04,3.039-.08,5.6-0.08,7.439,0,2.919.84,4.759,2.72,5.839a13.456,13.456,0,0,0,6.8,1.4,39.761,39.761,0,0,0,8.4-.76c1.24-.32,1.6-0.76,1.6-1.28a1.546,1.546,0,0,0-.84-1.24,3.348,3.348,0,0,0-1.76-.48,4.937,4.937,0,0,0-1.479.32c-0.56.16-1.04,0.32-1.52,0.44a22.579,22.579,0,0,1-5.559.6,9.044,9.044,0,0,1-4.56-1c-1.2-.72-1.6-1.72-1.6-4.119,0-1.8.12-4.679,0.16-7.8,1.639-.48,3.4-0.96,5.239-1.4,1.72-.44,3.479-0.8,5.2-1.12a44.662,44.662,0,0,1-.64,5.719c-0.28,1.52-.76,1.92-1.84,1.92a17.644,17.644,0,0,1-3.639-.64l-0.24.84c1.88,0.84,2.48,1.32,2.68,1.92a0.84,0.84,0,0,0,.959.76,5.4,5.4,0,0,0,2.4-.76c1.04-.6,1.6-1.4,1.96-3.679,0.32-2.12.52-4.239,0.68-6.479,0.959-.16,1.879-0.32,2.8-0.44a33.018,33.018,0,0,1,5.359-.32c0.92,0,1.12-.32,1.12-0.76s-0.36-.92-1.32-1.44a4.138,4.138,0,0,0-1.879-.68,2.9,2.9,0,0,0-1.12.36,7.469,7.469,0,0,1-2.32.72c-0.8.16-1.6,0.28-2.439,0.44,0.16-2.16.32-4,.439-5.319a7.511,7.511,0,0,1,.32-1.96,3.53,3.53,0,0,0,.24-1.04,2.174,2.174,0,0,0-1.239-1.48,5.454,5.454,0,0,0-2.96-.8,6.106,6.106,0,0,0-1.2.12l-0.12.88c1.8,0.36,2.52,1.32,2.52,2.6v1.48c-0.04,1.68-.16,3.879-0.36,6.039-1.88.4-3.719,0.84-5.6,1.28-1.76.4-3.4,0.84-4.959,1.2,0.04-1.36.04-2.68,0.12-3.959a5.454,5.454,0,0,1,.24-1.48,2.886,2.886,0,0,0,.2-1,1.982,1.982,0,0,0-.88-1.52,5.052,5.052,0,0,0-4.559-1.16l-0.16.88a3.142,3.142,0,0,1,2.159,1.08,3.486,3.486,0,0,1,.56,2.4v5.359Z" transform="translate(-0.297 0.297)"/>
</svg>
