<svg xmlns="http://www.w3.org/2000/svg" width="260" height="40" viewBox="0 0 260 40">
  <defs>
    <style>
      .cls-1 {
        fill: #090909;
        fill-rule: evenodd;
      }
    </style>
  </defs>
  <path id="施工手順" class="cls-1" d="M81.56,19.693L77.4,20.973V18.054c1.32-.36,1.6-0.56,1.6-0.96,0-.48-0.68-0.8-4.239-1.44l-0.2.24a7.009,7.009,0,0,1,.56,3.279v2.48l-0.24.08-3.719.88,1.12,1.6,2.84-1.08v5.759l-0.08,5.359c0,3.079.8,4.039,7.4,4.039,6.079,0,7.719-.28,8.839-0.6,0.96-.28,1.36-0.72,1.36-1.24a0.956,0.956,0,0,0-.64-0.88,1.209,1.209,0,0,1-.96-1.12c0-.88.04-1.88,0.08-3.319l-0.96-.12c-0.48,2.4-.92,3.639-1.4,4.2-0.52.64-1.24,0.88-6.559,0.88-4.479,0-4.8-.44-4.8-2.04v-11.6l4.159-1.28v6.4l-0.2,6.119,2.2-.08,0.4-.4L83.8,27.492v-7l4.439-1.36v8.119c0,0.96-.12,1.16-0.76,1.16a10.917,10.917,0,0,1-2.639-.4l-0.2.96c1.68,0.76,1.92,1.16,2.08,2.36,2.84-.12,3.879-1.12,3.879-3.759l-0.08-3.919v-4c0.88-.44,1.44-0.76,1.44-1.16,0-.48-0.4-0.8-2.36-2.24h-0.56l-1.16,1.52L83.8,19.014V14.454c1.2-.32,1.56-0.52,1.56-0.92,0-.52-0.72-0.72-4.079-1.28l-0.2.24a7.924,7.924,0,0,1,.48,3.2v4Zm-9.038-8.679v-0.96L70.042,7.5h-0.56l-1.72,2.16H65.082V5.176c1.48-.36,1.84-0.56,1.84-1.04,0-.68-0.8-0.92-4.839-1.6l-0.2.24a6.806,6.806,0,0,1,.64,3.359V9.655H59.483l-3.2-.24,0.44,1.84,2.76-.24h2.479c-0.04,14.358-1.6,20.557-6.159,26.8l0.76,0.6c4.8-4.959,7-10.078,7.719-19.677h3.8a84.929,84.929,0,0,1-.92,13.878c-0.4,2.28-1.4,2.88-2.6,2.88a22.031,22.031,0,0,1-3.639-.48l-0.16.96c2.24,0.76,2.6,1.2,2.72,2.52,3.6,0,5.559-1.36,6.159-5.439a110.869,110.869,0,0,0,.96-13.758c1.04-.48,1.28-0.68,1.28-1.04,0-.4-0.2-0.68-2.36-2.36h-0.56l-1.2,1.48h-3.4c0.12-2.12.12-4.239,0.16-6.359h8Zm4.639-1.68A27.852,27.852,0,0,0,78.88,5.3c1.24-.12,1.64-0.36,1.64-0.8,0-.48-0.68-0.96-3.959-2l-0.32.16a10.29,10.29,0,0,1-.24,2.2,24.7,24.7,0,0,1-4.879,10.638l0.72,0.64A22.454,22.454,0,0,0,76.4,10.695H92.838V9.735l-2.72-2.8h-0.56l-1.88,2.4H77.16Zm35.921,23.8H99.523l-3.279-.24,0.48,1.84,2.8-.24h33.435v-0.96l-3.04-3.159h-0.56l-2.2,2.76H115.881V9.455h14.037V8.5L127,5.456h-0.56l-2.12,2.64H102.8l-3.28-.24L100,9.7l2.8-.24h10.278V33.131Zm40.36-18.717h-9.878l-3.28-.24,0.48,1.84,2.8-.24h9.878v7.359H139.6l-3.279-.24,0.48,1.84,2.8-.24h13.838v9.678a1.086,1.086,0,0,1-1.24,1.24,33,33,0,0,1-4.919-.52l-0.2.92c2.84,0.96,3.36,1.64,3.479,3.039,3.88-.12,5.72-1.36,5.72-3.8l-0.16-7.159v-3.4H173v-0.96l-2.92-3.039h-0.56l-2.119,2.64H156.121V15.774h13.757v-0.96l-2.759-2.8h-0.56l-1.92,2.4h-8.518V6.9c3.359-.36,6.718-0.84,9.878-1.4a8.371,8.371,0,0,0,2.32.6c0.479,0,.679-0.2.679-0.48,0-.52-0.44-1.08-3.679-3.2h-0.28a13.205,13.205,0,0,1-3.879,1.44,179.329,179.329,0,0,1-21.717,3l0.08,0.96c4.28,0.04,9.079-.2,13.918-0.64v7.239Zm45.4-3.6c-1.16-.64-2.24-1.2-3.519-1.76l-0.24.24a10.4,10.4,0,0,1,.6,4V24.813l-0.2,7.479,2.319-.08,0.4-.4v-1.04H208v1.12l2.359-.08,0.4-.4-0.2-6.759V12.775c1.04-.36,1.36-0.64,1.36-1,0-.48-0.44-0.88-2.6-2.52h-0.56l-1.279,1.56h-4.8a33.97,33.97,0,0,0,2.72-4.679h7.639V5.176l-2.4-2.48h-0.56l-1.6,2.08H197.64l-3.279-.24,0.44,1.84,2.839-.24h4.64a36.244,36.244,0,0,1-1.12,4.679h-2.32Zm-0.64,1.36H208v4.479h-9.8V12.175Zm0,17.237v-5.2H208v5.2h-9.8Zm0-6.559V18.014H208v4.839h-9.8Zm-17.277-16.8c1.24-.32,1.64-0.56,1.64-0.96,0-.56-0.76-0.84-4.2-1.48l-0.2.24a8.235,8.235,0,0,1,.439,3.079V17.254c0,11.278-.6,14.837-2.8,19.317l0.72,0.64c3.319-4.359,4.4-8.519,4.4-20.317V6.056Zm8.719,22.676-0.2,7.439,2.319-.08,0.4-.4-0.2-7.359V5.736c1.24-.32,1.64-0.56,1.64-0.96,0-.56-1.04-0.84-4.2-1.48l-0.2.24a8.233,8.233,0,0,1,.44,3.079V28.732ZM184.2,24.413L184,32.771l2.279-.08,0.4-.4-0.2-8.279v-16c1.24-.32,1.64-0.56,1.64-0.96,0-.52-1.04-0.8-4.159-1.4l-0.2.24a7.784,7.784,0,0,1,.44,3V24.413Zm20.436,8.8a13.151,13.151,0,0,1,5.479,4.639c0.76,1.12,1.16,1.4,1.72,1.4a1.409,1.409,0,0,0,1.24-1.6c0-2.04-2.96-4.159-8.079-5.319Zm-14.8,6.159a23.006,23.006,0,0,0,10.518-4.479,6.291,6.291,0,0,0,1.08.12c0.6,0,.92-0.16.92-0.52,0-.4-0.36-0.76-2.96-2.44l-0.28.08a8.009,8.009,0,0,1-1.4,1.72,20.57,20.57,0,0,1-8.238,4.639Z" transform="translate(-4.437 -0.891)"/>
</svg>
