<svg xmlns="http://www.w3.org/2000/svg" width="727" height="72" viewBox="0 0 727 72">
  <defs>
    <style>
      .cls-1 {
        fill-rule: evenodd;
      }
    </style>
  </defs>
  <path id="サンルームの施工事例" class="cls-1" d="M76.741,53.9c6.54-1.02,11.58-3.6,15.239-7.86,4.26-4.98,6-12,6.06-20.7,1.14-.06,2.28-0.12,3.42-0.12,1.62,0,3.3.06,4.74,0.18a27.427,27.427,0,0,0,3,.24c1.079,0,1.5-.36,1.5-1.02,0-.78-0.42-1.38-1.979-2.4-1.62-1.08-2.34-1.5-2.88-1.5a5.85,5.85,0,0,0-1.56.66,8.233,8.233,0,0,1-3.36.6l-2.88.18c0-2.4,0-4.26.06-6.42a2.136,2.136,0,0,1,.9-2.04,1.651,1.651,0,0,0,.78-1.26c0-.54-0.54-1.32-2.1-2.1a10.863,10.863,0,0,0-4.92-1.26,9.156,9.156,0,0,0-1.8.18l-0.18,1.32c2.58,0.6,3.3,1.56,3.36,4.08s0.06,4.86.06,7.8c-4.92.36-9.84,0.84-14.7,1.38,0-1.8,0-3.48.06-4.8,0.06-1.26.18-1.62,0.72-2.1a1.66,1.66,0,0,0,.72-1.38c0-.6-0.78-1.32-1.92-1.86a11.341,11.341,0,0,0-4.8-1.2,10.711,10.711,0,0,0-1.38.12l-0.3,1.26c2.58,0.96,3.12,1.86,3.18,4.08,0.06,1.92.12,4.2,0.12,6.36-1.74.18-3.48,0.42-5.16,0.6a20.508,20.508,0,0,1-2.46.24c-1.32,0-2.52-.72-4.38-3l-1.08.78a11.988,11.988,0,0,0,2.22,4.74,4.217,4.217,0,0,0,2.64,1.86,3.979,3.979,0,0,0,1.8-.6,8.71,8.71,0,0,1,3-.96c1.14-.18,2.28-0.42,3.48-0.6v2.7a16.512,16.512,0,0,1-.18,3,13.644,13.644,0,0,0-.24,1.8,4.621,4.621,0,0,0,.66,2.28,3.089,3.089,0,0,0,1.92,1.68c1.02,0,1.56-.72,1.56-2.94,0-3.12-.12-6.36-0.18-9,4.8-.66,9.9-1.2,14.7-1.38-0.12,7.56-1.5,13.859-4.98,18.359-3.12,4.02-7.32,6.6-13.259,8.58ZM169.2,17.965a102.694,102.694,0,0,1-11.88,13.56,111.612,111.612,0,0,1-18.479,14.159c-1.86,1.08-2.7,1.32-3.3,1.32-1.14,0-2.52-.84-4.38-3.12l-1.08.84a9.949,9.949,0,0,0,3.12,5.88c1.26,1.26,2.76,2.34,3.72,2.34a1.843,1.843,0,0,0,1.68-1.08c0.54-.84.9-1.32,3.06-2.82a122.364,122.364,0,0,0,18-14.879,63.214,63.214,0,0,0,10.8-15.059Zm-40.439-2.82-0.48,1.26a18.9,18.9,0,0,1,8.82,6.84c1.26,1.74,2.1,2.22,3.06,2.22a2.228,2.228,0,0,0,2.1-2.46c0-1.8-1.08-3.42-3.06-4.74a17.651,17.651,0,0,0-10.14-3.12h-0.3Zm104.458,10.74A60.475,60.475,0,0,1,214.14,45.864a2.715,2.715,0,0,1-1.08.48c-0.24,0-.3-0.12-0.3-0.96,0-7.62,0-15.539.12-24.239,0.06-1.56.12-2.28,0.78-2.64a1.864,1.864,0,0,0,1.14-1.38c0-.72-0.9-1.56-2.1-2.4-1.26-.9-2.94-1.92-4.26-1.92a11,11,0,0,0-1.859.12l-0.36,1.32a4.24,4.24,0,0,1,2.159,1.08c0.48,0.54.6,1.08,0.66,2.82V44.3c0,1.08-.12,1.38-0.54,1.74a1.586,1.586,0,0,0-.6,1.26c0,0.54.6,1.2,2.4,3.18,1.68,1.86,2.46,2.34,2.94,2.34a1.686,1.686,0,0,0,1.44-1.26,4.229,4.229,0,0,1,1.5-2.1,55.848,55.848,0,0,0,18.359-22.619ZM184.621,51.8a23.639,23.639,0,0,0,11.88-9.84c3.24-5.28,4.56-11.159,5.4-17.219a7.386,7.386,0,0,1,.78-2.94,2.875,2.875,0,0,0,.48-1.5c0-.84-1.38-1.98-2.52-2.64a8.362,8.362,0,0,0-5.52-1.32l-0.54,1.2a6.735,6.735,0,0,1,2.7,1.74,3.639,3.639,0,0,1,.66,2.64c0,0.6-.06,1.32-0.12,2.1-0.54,5.7-1.68,11.279-4.32,16.319a25.725,25.725,0,0,1-9.84,10.14Zm61.74-22.979a13.151,13.151,0,0,0,2.94,5.58,3.961,3.961,0,0,0,2.52,1.56,3.764,3.764,0,0,0,1.8-.6,7.491,7.491,0,0,1,3.18-.9c3.9-.42,8.7-0.84,12.959-1.02,4.62-.18,9.36-0.24,11.94-0.24,2.94,0,5.22.06,6.9,0.24a31.763,31.763,0,0,0,3.6.36,1.382,1.382,0,0,0,1.619-1.44c0-.72-0.659-1.68-2.4-2.82s-2.46-1.5-3.06-1.5a4.534,4.534,0,0,0-1.68.48,5.97,5.97,0,0,1-2.7.66c-4.44.18-9.6,0.42-14.34,0.6-4.2.18-8.7,0.54-13.559,0.84-1.56.12-2.46,0.18-3.12,0.18-1.98,0-3.36-.54-5.52-2.76Zm81.42-15.539c2.04,1.62,2.339,2.64,2.339,3.48a6.661,6.661,0,0,1-1.139,3.3c-4.08,7.26-8.82,14.939-14.16,22.679a15.21,15.21,0,0,1-1.56.06c-1.56,0-2.46-.66-3.96-2.4l-1.08.78a16.336,16.336,0,0,0,2.82,5.46c0.96,1.38,1.98,2.4,2.7,2.4a2.366,2.366,0,0,0,1.62-1.02c0.6-.66.84-1.02,2.88-1.32,9-1.08,17.939-2.1,28.2-3.72,0.54,1.14,1.08,2.28,1.5,3.42,0.96,2.64,1.74,3.12,2.88,3.12,1.32,0,2.16-1.38,2.16-3.12,0-1.32-.66-3.48-2.76-5.94a44.642,44.642,0,0,0-10.62-8.94l-1.02.96a47.631,47.631,0,0,1,6.54,8.28c-9.06.84-18.3,1.56-27.419,1.92a242.266,242.266,0,0,0,15.119-20.7c1.2-1.68,1.32-1.86,2.34-2.1a1.494,1.494,0,0,0,1.32-1.44c0-.84-0.84-1.86-2.16-3.06a11.807,11.807,0,0,0-5.579-3.06ZM395.58,52.7c12.06-1.98,21.719-10.32,21.719-21.419,0-10.5-8.219-18.959-22.739-18.959-14.339,0-26.219,10.32-26.219,23.459a17.944,17.944,0,0,0,2.52,9.48c1.92,3.06,3.66,4.08,5.04,4.08,1.92,0,3.54-1.62,6.24-6.42,3.78-6.84,7.14-13.259,10.2-18.9,0.54-1.02.9-1.62,1.14-2.04a3.679,3.679,0,0,0,.66-1.8,3.651,3.651,0,0,0-1.08-2.22,26.048,26.048,0,0,0-2.879-2.88,25.885,25.885,0,0,1,4.2-.36c10.5,0,18.12,6.72,18.12,15.959,0,10.5-7.26,16.979-17.58,20.519Zm-19.739-8.04a3.063,3.063,0,0,1-2.28-1.56,13.014,13.014,0,0,1-2.16-7.68c0-9.9,7.8-17.519,16.92-19.919,1.26,2.1,1.5,3.18,1.5,3.96a7.94,7.94,0,0,1-.84,2.94c-2.94,5.88-6.48,12.66-9.78,18.6C377.581,43.884,376.681,44.664,375.841,44.664Zm88.5-15.119-6.24,1.92v-4.38c1.98-.54,2.4-0.84,2.4-1.44,0-.72-1.02-1.2-6.36-2.16l-0.3.36a10.515,10.515,0,0,1,.84,4.92v3.72l-0.36.12-5.579,1.32,1.68,2.4,4.259-1.62v8.64l-0.12,8.04c0,4.62,1.2,6.06,11.1,6.06,9.12,0,11.58-.42,13.259-0.9,1.44-.42,2.04-1.08,2.04-1.86a1.434,1.434,0,0,0-.96-1.32c-1.08-.54-1.44-0.9-1.44-1.68,0-1.32.06-2.82,0.12-4.98l-1.439-.18c-0.72,3.6-1.38,5.46-2.1,6.3-0.78.96-1.86,1.32-9.84,1.32-6.72,0-7.2-.66-7.2-3.06v-17.4l6.24-1.92v9.6l-0.3,9.18,3.3-.12,0.6-.6-0.24-8.58v-10.5l6.66-2.04v12.18c0,1.44-.18,1.74-1.14,1.74a16.381,16.381,0,0,1-3.96-.6l-0.3,1.44c2.52,1.14,2.88,1.74,3.12,3.54,4.26-.18,5.819-1.68,5.819-5.64l-0.12-5.88v-6c1.32-.66,2.16-1.14,2.16-1.74,0-.72-0.6-1.2-3.539-3.36h-0.84l-1.74,2.28-6.12,1.86v-6.84c1.8-.48,2.34-0.78,2.34-1.38,0-.78-1.08-1.08-6.12-1.92l-0.3.36a11.888,11.888,0,0,1,.72,4.8v6ZM450.781,16.525v-1.44l-3.72-3.84h-0.84l-2.58,3.24h-4.02V7.766c2.22-.54,2.76-0.84,2.76-1.56,0-1.02-1.2-1.38-7.26-2.4l-0.3.36a10.211,10.211,0,0,1,.96,5.04v5.28h-4.56l-4.8-.36,0.66,2.76,4.139-.36h3.72c-0.06,21.539-2.4,30.839-9.239,40.2l1.14,0.9c7.2-7.44,10.5-15.119,11.579-29.519h5.7c-0.06,9.24-.48,15.779-1.38,20.819-0.6,3.42-2.1,4.32-3.9,4.32a33.046,33.046,0,0,1-5.46-.72l-0.24,1.44c3.36,1.14,3.9,1.8,4.08,3.78,5.4,0,8.34-2.04,9.24-8.16a166.311,166.311,0,0,0,1.44-20.639c1.56-.72,1.92-1.02,1.92-1.56,0-.6-0.3-1.02-3.54-3.54h-0.84l-1.8,2.22h-5.1c0.18-3.18.18-6.36,0.24-9.54h12Zm6.959-2.52a41.794,41.794,0,0,0,2.58-6.06c1.86-.18,2.46-0.54,2.46-1.2,0-.72-1.02-1.44-5.94-3l-0.48.24a15.439,15.439,0,0,1-.36,3.3,37.055,37.055,0,0,1-7.319,15.959l1.08,0.96a33.681,33.681,0,0,0,6.839-8.16h24.659v-1.44l-4.079-4.2h-0.84l-2.82,3.6H457.74Zm55.081,35.7h-20.34l-4.919-.36,0.72,2.76,4.2-.36h50.158V50.3l-4.56-4.74H537.24l-3.3,4.14H517.02V14.185h21.059v-1.44L533.7,8.186h-0.84l-3.18,3.96H497.4l-4.92-.36,0.72,2.76,4.2-.36h15.42V49.7ZM578.34,26.725h12.6v1.86l3.36-.12,0.6-.6-0.18-5.34v-2.34c1.5-.6,2.04-1.02,2.04-1.62,0-.72-0.66-1.26-3.84-3.66h-0.84l-1.92,2.22H578.34v-4.26h24.239v-1.44l-4.079-4.2h-0.84l-2.88,3.6H578.34V7.466c2.22-.54,2.76-0.84,2.76-1.56,0-.96-1.14-1.38-7.259-2.28l-0.3.36a10.211,10.211,0,0,1,.96,5.04v1.8h-19.62l-4.919-.36,0.659,2.76,4.26-.36H574.5v4.26h-11.46a54.744,54.744,0,0,0-4.98-2.4l-0.36.36a17.273,17.273,0,0,1,.72,5.76v2.58l-0.24,5.52,3.36-.12,0.6-.6v-1.5H574.5v4.86h-13.62l-4.92-.36,0.72,2.76,4.2-.36H574.5v4.8h-20.46l-4.919-.36,0.72,2.76,4.2-.36H574.5V45.5H561l-4.92-.36,0.72,2.76,4.2-.36h13.5v4.5a1.628,1.628,0,0,1-1.86,1.86,45.659,45.659,0,0,1-7.08-.78l-0.3,1.38c4.14,1.38,4.98,2.28,5.16,4.44,5.939-.18,8.159-1.98,8.159-5.58l-0.18-5.82h13.26V50.6l3.6-.12,0.6-.6-0.36-7.86v-1.56h8.879v-1.44l-3.6-3.72h-0.84l-2.4,3.12H595.5v-3.9c1.44-.54,1.68-0.96,1.68-1.5,0-.72-0.24-1.14-3.42-3.6h-0.84l-1.86,2.16H578.34v-4.86Zm0-2.04v-5.52h12.6v5.52h-12.6Zm-3.839,0h-12.36v-5.52H574.5v5.52Zm3.839,8.94h13.32v4.8H578.34v-4.8Zm0,11.88v-5.04h13.32V45.5H578.34Zm55.2-24.359a84.8,84.8,0,0,0,2.639-10.02h11.16V9.686l-3.6-3.72H642.9l-2.46,3.12h-10.5l-4.92-.36,0.66,2.76,4.26-.36h2.04c-0.96,9.78-4.8,19.739-10.32,26.339l1.2,0.84a34.35,34.35,0,0,0,6.24-7.56,21.142,21.142,0,0,1,3.84,5.58c0.54,1.5,1.02,2.04,2.1,2.04a1.78,1.78,0,0,0,.839-0.3c-3.3,7.5-8.219,13.319-14.879,18.659l1.02,1.02c12.66-7.86,18.6-17.759,21.839-33.839,1.56-.42,2.22-0.72,2.22-1.32s-0.9-1.38-3.9-3.6h-0.84l-1.68,2.16h-6.119Zm6.479,2.04a62.631,62.631,0,0,1-3.3,12.84c-0.36-3.12-4.379-5.4-6.839-6.6a45.623,45.623,0,0,0,2.94-6.24h7.2ZM619.441,4.046a23.012,23.012,0,0,1-.9,5.58,62.572,62.572,0,0,1-10.2,22.079l1.14,0.9a59.189,59.189,0,0,0,6.179-8.1l-0.12,9.54v10.8l-0.3,14.039,3.3-.12,0.6-.6V22.705c2.16-.42,2.52-0.78,2.52-1.38s-0.84-1.08-3.24-1.68a86.659,86.659,0,0,0,4.74-11.339c1.98-.36,2.52-0.6,2.52-1.32,0-.9-1.08-1.44-5.82-3.12Zm42.3,4.2c2.22-.54,2.76-0.84,2.76-1.56,0-1.02-.96-1.38-7.079-2.4l-0.3.36a10.211,10.211,0,0,1,.96,5.04V52.524a1.61,1.61,0,0,1-1.8,1.86,41.55,41.55,0,0,1-6.72-.78l-0.3,1.38c3.9,1.38,4.86,2.04,4.86,4.08,5.82-.18,7.919-1.98,7.919-5.58l-0.3-15.539V8.246ZM648.42,46.584l3.36-.12,0.6-.6L652.2,32.545V15.025c2.22-.54,2.58-0.84,2.58-1.56,0-1.02-1.2-1.38-6.84-2.4l-0.3.36a10.211,10.211,0,0,1,.96,5.04V32.545Z" transform="translate(-0.156 4.656)"/>
</svg>
