<svg xmlns="http://www.w3.org/2000/svg" width="727" height="72" viewBox="0 0 727 72">
  <defs>
    <style>
      .cls-1 {
        fill-rule: evenodd;
      }
    </style>
  </defs>
  <path id="目隠しフェンスの施工事例" class="cls-1" d="M36,52.824v3.96l3.72-.12,0.6-.6-0.3-16.919V11.426c1.74-.78,2.16-1.14,2.16-1.68,0-.72-0.6-1.26-4.2-3.84H37.14L35.1,8.366H9.781c-1.8-.96-3.48-1.8-5.46-2.64l-0.36.36a15.606,15.606,0,0,1,.9,6v26.7l-0.3,18.3,3.66-.12,0.6-.6v-3.54H36Zm0-2.04H8.821v-12.6H36v12.6Zm0-14.639H8.821v-12H36v12Zm0-14.039H8.821v-11.7H36v11.7Zm66.96,15.059v2.22l3.24-.12,0.6-.6-0.3-9V24.8c1.62-.72,2.159-1.08,2.159-1.74,0-.6-0.539-1.14-3.539-3.48h-0.84l-1.92,2.28h-20.1l-4.92-.36,0.72,2.76,4.2-.36h20.7v4.44H83.281l-4.92-.36,0.72,2.76,4.2-.36H102.96v4.74H82.741l-4.92-.36,0.72,2.76,4.2-.36H102.96ZM62.341,9.266h7.2a101.742,101.742,0,0,1-3.36,11.46,5.7,5.7,0,0,0-.42,1.74,3.021,3.021,0,0,0,.6,1.68c3.54,5.28,4.02,8.52,4.02,11.28,0,3.78-.96,5.04-2.76,5.04a24.919,24.919,0,0,1-4.26-.48l-0.12,1.44c2.94,0.96,3.54,1.62,3.72,3.66,4.8-.24,7.14-3.84,7.14-9.48,0-3.06-1.38-6.9-5.88-12.12a2.1,2.1,0,0,1-.6-1.14,2.183,2.183,0,0,1,.36-1.14c2.04-3.66,3.72-7.02,5.58-11.16,2.04-.48,2.4-0.66,2.4-1.32s-0.42-1.14-4.26-4.02h-0.84l-1.92,2.52h-5.7a42.244,42.244,0,0,0-5.16-2.82l-0.36.36a15.608,15.608,0,0,1,.9,6v35.1L58.322,59l3.42-.12,0.6-.6V9.266Zm39.419-5.46a18.278,18.278,0,0,1-3.3,1.44c-4.62,1.5-13.02,2.88-21.479,3.48l0.24,1.44a152.091,152.091,0,0,0,25.5-2.28,18.961,18.961,0,0,0,3.48.54c0.9,0,1.2-.24,1.2-0.72,0-.78-0.9-1.62-5.22-3.9h-0.42Zm-0.12,39.3a14.755,14.755,0,0,1,4.74,7.38c0.54,2.04,1.2,2.7,2.279,2.7,1.02,0,1.92-.9,1.92-2.52,0-2.22-2.28-5.52-7.859-8.52ZM101.16,9.566a20.132,20.132,0,0,1-1.08,3.6,45.858,45.858,0,0,1-3.6,7.32l1.26,0.72a39.023,39.023,0,0,0,6.36-7.68c1.86,0.12,2.64-.12,2.64-0.78,0-.78-0.84-1.32-5.16-3.36Zm-13.74,1.44a13.046,13.046,0,0,1,2.52,6.72c0.18,1.56.78,2.22,1.8,2.22,1.32,0,2.04-1.08,2.04-2.7,0-1.86-1.62-4.26-5.16-7.02ZM87.24,39.384a14.487,14.487,0,0,1,4.86,5.76c0.72,1.56,1.26,2.16,2.16,2.16a1.921,1.921,0,0,0,1.86-2.16c0-2.28-2.88-4.8-7.92-6.84Zm-11.1,3c-0.12,3.54-1.14,5.94-3,7.26-1.74,1.26-2.1,1.92-2.1,2.76a1.9,1.9,0,0,0,2.16,1.92c2.82,0,4.74-3.6,4.74-7.62a25.519,25.519,0,0,0-.36-4.26ZM77.1,12.625a13.512,13.512,0,0,1,3.66,6.42c0.42,1.56.96,2.1,1.98,2.1,1.14,0,1.8-1.02,1.8-2.52,0-1.62-1.92-4.44-6.3-6.96Zm8.7,31.739c1.5-.48,2.16-0.84,2.16-1.5,0-.72-1.02-1.14-6.06-1.86l-0.3.36a11.47,11.47,0,0,1,.78,4.38v2.4l-0.12,3.96c0,4.08,1.56,5.1,9.06,5.1,4.32,0,8.52-.24,10.26-0.78a1.883,1.883,0,0,0,1.62-1.68,1.373,1.373,0,0,0-1.02-1.26,1.2,1.2,0,0,1-.9-1.08v-4.74l-1.44-.12c-0.6,3-1.08,4.74-1.86,5.46-0.9.78-2.58,1.02-6.9,1.02-4.56,0-5.28-.6-5.28-2.52v-7.14ZM129.721,7.886c3,1.62,3.3,2.7,3.3,4.62,0,0.54-.06,1.56-0.18,3.18-0.24,3.12-.54,7.74-0.9,12.9-0.3,5.1-.48,9.96-0.48,12.84,0,5.04.9,7.98,2.64,10.079,1.98,2.4,5.16,3.78,9.24,3.78a24.772,24.772,0,0,0,11.159-2.94,37.455,37.455,0,0,0,10.44-8.22l-1.08-1.32a50.414,50.414,0,0,1-10.62,6.48,23.7,23.7,0,0,1-9.659,2.16c-3.06,0-5.34-.6-6.84-2.34-1.26-1.44-1.56-3.48-1.56-8.4,0-3.12.36-8.04,0.72-12.06,0.36-4.08.78-8.04,1.32-12.119a18.554,18.554,0,0,1,.96-4.02,4.027,4.027,0,0,0,.36-1.68c0-.9-0.72-1.74-2.34-2.52a17.262,17.262,0,0,0-5.94-1.68Zm59.88,45a46.642,46.642,0,0,0,20.039-9.9c5.94-5.1,10.38-11.76,13.62-20.219,0.9-2.28,1.08-2.52,2.22-2.88,1.08-.36,1.5-0.84,1.5-1.5,0-.72-0.72-1.56-2.94-3-1.98-1.26-2.76-1.56-3.12-1.56a2.523,2.523,0,0,0-1.56.78,2.913,2.913,0,0,1-2.22.96c-3.84.24-7.86,0.54-12.059,0.84-3.78.3-7.62,0.66-11.46,1.02-1.02.06-2.1,0.12-2.64,0.12-1.8,0-3-.66-4.92-3.24l-1.14.72a11.279,11.279,0,0,0,2.22,5.4c0.96,1.32,1.98,1.92,2.7,1.92a3.765,3.765,0,0,0,1.8-.6,7.3,7.3,0,0,1,2.64-.78c3.42-.48,6.9-1.02,10.98-1.38,3.719-.3,7.019-0.54,10.919-0.78,1.02-.06,2.34-0.12,3-0.12,0.42,0,.48.06,0.48,0.36a9.759,9.759,0,0,1-.66,2.4c-3,7.86-6.84,13.919-11.94,18.719-4.979,4.8-10.979,8.28-18.3,11.34Zm64.38-25.559a7.318,7.318,0,0,0,1.74,3.9,2.66,2.66,0,0,0,1.98,1.2,3.442,3.442,0,0,0,1.44-.3,11.142,11.142,0,0,1,2.4-.54c0.9-.12,1.86-0.3,2.76-0.36,1.02,0.84,1.08,1.5,1.08,3.3,0,4.02,0,8.04-.06,12.179-2.88.3-5.76,0.54-8.7,0.84-1.26.12-2.28,0.24-2.76,0.24-1.08,0-2.04-.36-3.78-2.46L249,46.1a9.83,9.83,0,0,0,2.04,4.2c0.78,1.02,1.44,1.5,2.1,1.5a3.337,3.337,0,0,0,1.56-.48,7.457,7.457,0,0,1,2.4-.78c3-.42,6.78-0.84,10.2-1.14,3.42-.24,5.88-0.3,8.82-0.36,2.34,0,3.78.06,4.8,0.12,0.78,0.06,2.34.24,3.06,0.24,0.9,0,1.32-.36,1.32-1.02,0-.72-0.54-1.44-1.8-2.22a5.373,5.373,0,0,0-2.52-1.02,3.932,3.932,0,0,0-1.44.36,8.653,8.653,0,0,1-2.88.48c-2.7.12-5.34,0.24-7.98,0.42,0.12-3.96.06-7.74,0.24-11.04a2.644,2.644,0,0,1,.66-1.68,1.239,1.239,0,0,0,.48-0.96,2.283,2.283,0,0,0-1.44-1.38,12.45,12.45,0,0,0-1.2-.48c2.4-.18,4.68-0.3,6.48-0.36,1.92,0,3.54.12,5.16,0.12a1,1,0,0,0,1.2-1.08c0-.6-0.48-1.2-1.56-1.92a4.393,4.393,0,0,0-2.22-.96,2.7,2.7,0,0,0-1.26.36,5.739,5.739,0,0,1-2.22.66c-1.8.18-3.84,0.36-5.76,0.54-2.219.18-4.379,0.36-6.6,0.6-0.66.06-1.26,0.12-2.04,0.12-1.38-.06-2.1-0.48-3.54-2.34Zm95.819-9.36a102.694,102.694,0,0,1-11.88,13.56,111.57,111.57,0,0,1-18.479,14.159c-1.86,1.08-2.7,1.32-3.3,1.32-1.14,0-2.52-.84-4.38-3.12l-1.08.84a9.949,9.949,0,0,0,3.12,5.88c1.26,1.26,2.76,2.34,3.72,2.34a1.843,1.843,0,0,0,1.68-1.08c0.54-.84.9-1.32,3.06-2.82a122.364,122.364,0,0,0,18-14.879,63.214,63.214,0,0,0,10.8-15.059Zm-40.439-2.82-0.48,1.26a18.9,18.9,0,0,1,8.82,6.84c1.26,1.74,2.1,2.22,3.06,2.22a2.228,2.228,0,0,0,2.1-2.46c0-1.8-1.08-3.42-3.06-4.74a17.651,17.651,0,0,0-10.14-3.12h-0.3Zm62.58,0.3a12.745,12.745,0,0,0,2.16,5.1,3.608,3.608,0,0,0,2.4,1.86,3.058,3.058,0,0,0,1.62-.54,6.188,6.188,0,0,1,2.58-.9c2.52-.48,4.92-0.9,7.56-1.32,2.4-.36,4.619-0.6,6.6-0.84,1.08-.12,1.98-0.18,2.52-0.18,0.3,0,.36.06,0.36,0.24a4.21,4.21,0,0,1-.48,1.38,66.694,66.694,0,0,1-13.5,18.959,55.348,55.348,0,0,1-17.34,11.4l0.72,1.38a43.187,43.187,0,0,0,19.02-10.2,57.492,57.492,0,0,0,5.339-5.46c6.6,3.9,10.92,7.74,14.28,12.24,1.74,2.28,2.46,2.88,3.42,2.88a2.3,2.3,0,0,0,2.34-2.46c0-1.68-1.5-3.78-4.14-5.94a54.926,54.926,0,0,0-14.64-8.22,72.347,72.347,0,0,0,8.4-12.9c0.84-1.68.96-1.8,2.1-2.1,1.32-.36,1.86-0.78,1.86-1.5,0-.6-0.54-1.26-2.46-2.88-1.56-1.32-2.22-1.68-2.52-1.68a2.575,2.575,0,0,0-1.5.72,3.915,3.915,0,0,1-2.7,1.08c-2.34.3-5.16,0.6-8.039,0.96-2.7.36-5.16,0.72-7.8,1.08a18.572,18.572,0,0,1-2.46.24c-1.32,0-2.46-.54-4.5-3.12ZM453.78,52.7c12.06-1.98,21.719-10.32,21.719-21.419,0-10.5-8.219-18.959-22.739-18.959-14.339,0-26.219,10.32-26.219,23.459a17.944,17.944,0,0,0,2.52,9.48c1.92,3.06,3.66,4.08,5.04,4.08,1.92,0,3.54-1.62,6.24-6.42,3.78-6.84,7.14-13.259,10.2-18.9,0.54-1.02.9-1.62,1.14-2.04a3.679,3.679,0,0,0,.66-1.8,3.651,3.651,0,0,0-1.08-2.22,25.961,25.961,0,0,0-2.879-2.88,25.9,25.9,0,0,1,4.2-.36c10.5,0,18.12,6.72,18.12,15.959,0,10.5-7.26,16.979-17.58,20.519Zm-19.739-8.04a3.063,3.063,0,0,1-2.28-1.56,13.014,13.014,0,0,1-2.16-7.68c0-9.9,7.8-17.519,16.92-19.919,1.26,2.1,1.5,3.18,1.5,3.96a7.94,7.94,0,0,1-.84,2.94c-2.94,5.88-6.48,12.66-9.78,18.6C435.781,43.884,434.881,44.664,434.041,44.664Zm88.5-15.119-6.24,1.92v-4.38c1.98-.54,2.4-0.84,2.4-1.44,0-.72-1.02-1.2-6.36-2.16l-0.3.36a10.515,10.515,0,0,1,.84,4.92v3.72l-0.36.12-5.579,1.32,1.68,2.4,4.259-1.62v8.64l-0.12,8.04c0,4.62,1.2,6.06,11.1,6.06,9.12,0,11.58-.42,13.259-0.9,1.44-.42,2.04-1.08,2.04-1.86a1.434,1.434,0,0,0-.96-1.32c-1.08-.54-1.44-0.9-1.44-1.68,0-1.32.06-2.82,0.12-4.98l-1.439-.18c-0.72,3.6-1.38,5.46-2.1,6.3-0.78.96-1.86,1.32-9.84,1.32-6.72,0-7.2-.66-7.2-3.06v-17.4l6.24-1.92v9.6l-0.3,9.18,3.3-.12,0.6-.6-0.24-8.58v-10.5l6.66-2.04v12.18c0,1.44-.18,1.74-1.14,1.74a16.381,16.381,0,0,1-3.96-.6l-0.3,1.44c2.52,1.14,2.88,1.74,3.12,3.54,4.26-.18,5.82-1.68,5.82-5.64l-0.12-5.88v-6c1.319-.66,2.159-1.14,2.159-1.74,0-.72-0.6-1.2-3.539-3.36h-0.84l-1.74,2.28-6.12,1.86v-6.84c1.8-.48,2.34-0.78,2.34-1.38,0-.78-1.08-1.08-6.12-1.92l-0.3.36a11.888,11.888,0,0,1,.72,4.8v6ZM508.981,16.525v-1.44l-3.72-3.84h-0.84l-2.58,3.24h-4.02V7.766c2.22-.54,2.76-0.84,2.76-1.56,0-1.02-1.2-1.38-7.26-2.4l-0.3.36a10.211,10.211,0,0,1,.96,5.04v5.28h-4.56l-4.8-.36,0.66,2.76,4.139-.36h3.72c-0.06,21.539-2.4,30.839-9.239,40.2l1.14,0.9c7.2-7.44,10.5-15.119,11.579-29.519h5.7c-0.06,9.24-.48,15.779-1.38,20.819-0.6,3.42-2.1,4.32-3.9,4.32a33.046,33.046,0,0,1-5.46-.72l-0.24,1.44c3.36,1.14,3.9,1.8,4.08,3.78,5.4,0,8.34-2.04,9.24-8.16a166.311,166.311,0,0,0,1.44-20.639c1.56-.72,1.92-1.02,1.92-1.56,0-.6-0.3-1.02-3.54-3.54h-0.84l-1.8,2.22h-5.1c0.18-3.18.18-6.36,0.24-9.54h12Zm6.959-2.52a41.794,41.794,0,0,0,2.58-6.06c1.86-.18,2.46-0.54,2.46-1.2,0-.72-1.02-1.44-5.94-3l-0.48.24a15.439,15.439,0,0,1-.36,3.3,37.044,37.044,0,0,1-7.319,15.959l1.08,0.96a33.681,33.681,0,0,0,6.839-8.16h24.659v-1.44l-4.079-4.2h-0.84l-2.82,3.6H515.94Zm55.081,35.7h-20.34l-4.919-.36,0.72,2.76,4.2-.36h50.158V50.3l-4.559-4.74h-0.84l-3.3,4.14H575.22V14.185h21.06v-1.44l-4.38-4.56h-0.84l-3.18,3.96H555.6l-4.92-.36,0.72,2.76,4.2-.36h15.42V49.7ZM636.54,26.725h12.6v1.86l3.36-.12,0.6-.6-0.18-5.34v-2.34c1.5-.6,2.04-1.02,2.04-1.62,0-.72-0.66-1.26-3.84-3.66h-0.84l-1.92,2.22H636.54v-4.26h24.239v-1.44l-4.079-4.2h-0.84l-2.88,3.6H636.54V7.466c2.22-.54,2.76-0.84,2.76-1.56,0-.96-1.14-1.38-7.259-2.28l-0.3.36a10.211,10.211,0,0,1,.96,5.04v1.8h-19.62l-4.919-.36,0.66,2.76,4.259-.36H632.7v4.26h-11.46a54.744,54.744,0,0,0-4.98-2.4l-0.36.36a17.273,17.273,0,0,1,.72,5.76v2.58l-0.24,5.52,3.36-.12,0.6-.6v-1.5H632.7v4.86h-13.62l-4.92-.36,0.72,2.76,4.2-.36H632.7v4.8h-20.46l-4.919-.36,0.72,2.76,4.2-.36H632.7V45.5H619.2l-4.92-.36L615,47.9l4.2-.36h13.5v4.5a1.628,1.628,0,0,1-1.86,1.86,45.659,45.659,0,0,1-7.08-.78l-0.3,1.38c4.14,1.38,4.98,2.28,5.16,4.44,5.939-.18,8.159-1.98,8.159-5.58l-0.18-5.82h13.26V50.6l3.6-.12,0.6-.6-0.36-7.86v-1.56h8.879v-1.44l-3.6-3.72H658.14l-2.4,3.12H653.7v-3.9c1.44-.54,1.68-0.96,1.68-1.5,0-.72-0.24-1.14-3.42-3.6h-0.84l-1.86,2.16H636.54v-4.86Zm0-2.04v-5.52h12.6v5.52h-12.6Zm-3.839,0h-12.36v-5.52H632.7v5.52Zm3.839,8.94h13.32v4.8H636.54v-4.8Zm0,11.88v-5.04h13.32V45.5H636.54Zm55.2-24.359a85,85,0,0,0,2.64-10.02H705.54V9.686l-3.6-3.72H701.1l-2.46,3.12h-10.5l-4.92-.36,0.66,2.76,4.26-.36h2.04c-0.96,9.78-4.8,19.739-10.32,26.339l1.2,0.84a34.35,34.35,0,0,0,6.24-7.56,21.142,21.142,0,0,1,3.84,5.58c0.54,1.5,1.02,2.04,2.1,2.04a1.787,1.787,0,0,0,.84-0.3c-3.3,7.5-8.22,13.319-14.88,18.659l1.02,1.02c12.66-7.86,18.6-17.759,21.839-33.839,1.56-.42,2.22-0.72,2.22-1.32s-0.9-1.38-3.9-3.6h-0.84l-1.68,2.16h-6.119Zm6.479,2.04a62.7,62.7,0,0,1-3.3,12.84c-0.36-3.12-4.38-5.4-6.84-6.6a45.623,45.623,0,0,0,2.94-6.24h7.2ZM677.641,4.046a23.012,23.012,0,0,1-.9,5.58,62.572,62.572,0,0,1-10.2,22.079l1.14,0.9a59.109,59.109,0,0,0,6.179-8.1l-0.12,9.54v10.8l-0.3,14.039,3.3-.12,0.6-.6V22.705c2.16-.42,2.52-0.78,2.52-1.38s-0.84-1.08-3.24-1.68a86.659,86.659,0,0,0,4.74-11.339c1.98-.36,2.52-0.6,2.52-1.32,0-.9-1.08-1.44-5.82-3.12Zm42.3,4.2c2.219-.54,2.759-0.84,2.759-1.56,0-1.02-.96-1.38-7.079-2.4l-0.3.36a10.211,10.211,0,0,1,.96,5.04V52.524a1.61,1.61,0,0,1-1.8,1.86,41.55,41.55,0,0,1-6.72-.78l-0.3,1.38c3.9,1.38,4.86,2.04,4.86,4.08,5.82-.18,7.92-1.98,7.92-5.58l-0.3-15.539V8.246ZM706.62,46.584l3.36-.12,0.6-.6L710.4,32.545V15.025c2.22-.54,2.58-0.84,2.58-1.56,0-1.02-1.2-1.38-6.84-2.4l-0.3.36a10.211,10.211,0,0,1,.96,5.04V32.545Z" transform="translate(0.172 4.656)"/>
</svg>
