<svg xmlns="http://www.w3.org/2000/svg" width="727" height="72" viewBox="0 0 727 72">
  <defs>
    <style>
      .cls-1 {
        fill-rule: evenodd;
      }
    </style>
  </defs>
  <path id="ウッドデッキの施工事例" class="cls-1" d="M33.581,18.325c2.46,1.02,3.06,1.98,3.18,4.86,0.06,1.92.06,3.78,0.06,5.58,0,1.26-.06,2.28-0.12,2.82a14.732,14.732,0,0,0-.12,1.62c0,1.5,1.44,3.48,2.52,3.48,1.02,0,1.74-.54,1.74-2.16,0-.78,0-1.86-0.06-3.12-0.12-3.06-.18-5.52-0.18-7.32v-0.84a4.418,4.418,0,0,0,2.16.96,4.163,4.163,0,0,0,1.56-.3,9.547,9.547,0,0,1,1.98-.54c2.7-.3,4.92-0.48,7.74-0.72,3.36-.3,6.72-0.48,9.9-0.66,1.14-.06,2.22-0.12,2.82-0.12,0.48,0,.6.12,0.6,0.54a11.128,11.128,0,0,1-.24,1.8A40.691,40.691,0,0,1,58,42.624c-4.14,4.62-9.54,8.04-15.839,10.68l0.72,1.38a35.753,35.753,0,0,0,17.759-9.54c5.16-5.1,8.64-11.82,10.62-19.739,0.48-1.86.96-2.34,1.8-2.7,0.9-.36,1.32-0.72,1.32-1.38s-0.6-1.26-2.58-2.58c-1.74-1.2-2.4-1.5-2.76-1.5a2.44,2.44,0,0,0-1.44.78,3.568,3.568,0,0,1-2.64.9c-3.24.18-6.12,0.36-9.18,0.6,0-1.38,0-2.64.12-3.84a1.9,1.9,0,0,1,.9-1.8,1.549,1.549,0,0,0,.9-1.32c0-.54-0.6-1.32-2.22-2.16a10.018,10.018,0,0,0-4.2-1.32,5.721,5.721,0,0,0-2.46.6l-0.12,1.32c2.04,0.24,2.88,1.02,3,3,0.12,1.8.12,3.72,0.12,5.82-2.4.18-4.5,0.36-6.42,0.54-1.62.18-2.46,0.3-3.24,0.3a7.649,7.649,0,0,1-1.14-.06,6.164,6.164,0,0,0-1.56-1.56A8.352,8.352,0,0,0,34,17.065Zm76.86,9.12a14.242,14.242,0,0,1,3,6.78c0.3,1.86.96,2.52,1.92,2.52,1.32,0,2.04-.9,2.04-2.52a6.054,6.054,0,0,0-.84-3.06,12.186,12.186,0,0,0-5.039-4.56Zm-11.58,1.8a15.623,15.623,0,0,1,3.72,6.36c0.54,1.8,1.08,2.22,2.04,2.22,1.2,0,1.98-.96,1.92-2.4a5.731,5.731,0,0,0-1.08-3,14.246,14.246,0,0,0-5.58-4.14Zm24.419-1.98c1.98,0.78,2.64,1.56,2.64,2.34a7.883,7.883,0,0,1-.42,1.92,39.67,39.67,0,0,1-7.86,14.339,40.844,40.844,0,0,1-11.819,8.94l0.9,1.26a30.444,30.444,0,0,0,13.259-7.92,42.791,42.791,0,0,0,9-15,3.05,3.05,0,0,1,1.38-1.8,1.234,1.234,0,0,0,.72-1.14,3.543,3.543,0,0,0-1.62-2.28,8.207,8.207,0,0,0-5.7-1.92ZM183.7,11.246a21.565,21.565,0,0,1,5.22,5.22c1.38,2.04,1.92,2.64,2.94,2.64a2.078,2.078,0,0,0,1.98-2.16c0-1.98-2.46-4.56-9.3-6.72Zm5.16-4.32a20.417,20.417,0,0,1,5.76,4.5c1.56,1.92,2.1,2.28,2.939,2.28a1.842,1.842,0,0,0,1.92-1.98c0-2.16-2.879-4.5-9.959-6Zm-22.2,3.48c3.42,1.14,3.78,1.86,3.84,5.22,0.06,3.54.06,7.26,0.06,10.8,0,6.18.06,12.42-.12,17.819a12.17,12.17,0,0,1-.42,3.12,8.118,8.118,0,0,0-.36,2.28,9.5,9.5,0,0,0,.9,3.24c0.66,1.5,1.26,2.16,2.219,2.16s1.8-.78,1.8-3.06c0-9.9-.12-17.279-0.12-24.359a35.285,35.285,0,0,1,12.36,6.36c1.8,1.5,2.52,1.86,3.48,1.86a2.153,2.153,0,0,0,2.1-2.34c0-1.5-1.08-3.06-4.38-4.56a43.146,43.146,0,0,0-13.56-3.3c0-3.24,0-6.42.12-9.42a1.815,1.815,0,0,1,.78-1.74,1.848,1.848,0,0,0,.66-1.32c0-.54-0.36-1.2-1.62-2.16a9.486,9.486,0,0,0-5.4-2.04,10.754,10.754,0,0,0-2.04.18Zm85.319-2.22a20.3,20.3,0,0,1,4.74,5.64c1.2,2.16,1.68,2.88,2.939,2.88a2.054,2.054,0,0,0,1.92-2.22c0-1.68-1.98-4.5-8.639-7.32Zm5.52-3.96a21.475,21.475,0,0,1,5.339,5.04c1.38,2.1,1.98,2.58,2.94,2.58a1.88,1.88,0,0,0,1.86-2.04c0-1.86-2.34-4.44-9.3-6.6ZM214.3,25.345a10.547,10.547,0,0,0,2.22,3.54c1.02,1.2,2.16,2.04,2.82,2.04a3.127,3.127,0,0,0,1.5-.48,7.8,7.8,0,0,1,3-.96c4.02-.6,7.92-0.96,11.879-1.32a2.1,2.1,0,0,1,1.38,2.16c0,0.78-.06,1.56-0.12,2.34a28.632,28.632,0,0,1-3.659,12.3,22.068,22.068,0,0,1-11.34,8.88l0.78,1.44c6.24-1.26,10.74-4.2,13.679-8.34,2.76-3.96,4.2-8.94,4.92-13.8,0.18-1.26.24-1.38,0.84-1.8a1.109,1.109,0,0,0,.66-1.08c0-.54-0.42-1.08-1.62-1.74a10.459,10.459,0,0,0-1.38-.6c3.78-.24,7.8-0.36,10.92-0.36,1.62,0,3.3.06,4.32,0.12,0.9,0.06,2.64.24,3.42,0.24,1.259,0,1.8-.36,1.8-1.08,0-.78-0.42-1.38-2.519-2.7a7.382,7.382,0,0,0-2.76-1.32,3.415,3.415,0,0,0-1.74.78c-0.72.48-1.02,0.54-3,.66-4.44.3-8.4,0.42-12.12,0.66-4.979.36-9.719,0.78-15.479,1.38a28.413,28.413,0,0,1-3.06.24c-1.32,0-2.52-.42-4.44-2.16Zm8.28-13.739a14.069,14.069,0,0,0,2.34,3.78,4.285,4.285,0,0,0,2.34,1.68,3.329,3.329,0,0,0,1.32-.36,6.23,6.23,0,0,1,2.1-.6c2.1-.24,4.679-0.54,7.439-0.78,2.64-.24,6.36-0.54,9.3-0.54,1.44,0,2.28.18,3.78,0.18a1.033,1.033,0,0,0,1.2-1.02c0-.9-1.08-1.68-1.98-2.34a5,5,0,0,0-2.22-1.08,3.643,3.643,0,0,0-1.32.42,5.845,5.845,0,0,1-2.22.6c-1.92.18-4.5,0.42-7.08,0.66-2.22.18-4.379,0.36-6.6,0.54-1.74.12-2.28,0.18-2.88,0.18-1.08,0-2.52-.54-4.62-2.28Zm71.46,15.839a14.242,14.242,0,0,1,3,6.78c0.3,1.86.96,2.52,1.92,2.52,1.32,0,2.04-.9,2.04-2.52a6.054,6.054,0,0,0-.84-3.06,12.183,12.183,0,0,0-5.04-4.56Zm-11.58,1.8a15.623,15.623,0,0,1,3.72,6.36c0.54,1.8,1.08,2.22,2.04,2.22,1.2,0,1.98-.96,1.92-2.4a5.731,5.731,0,0,0-1.08-3,14.246,14.246,0,0,0-5.58-4.14Zm24.419-1.98c1.98,0.78,2.64,1.56,2.64,2.34a7.883,7.883,0,0,1-.42,1.92,39.67,39.67,0,0,1-7.86,14.339,40.844,40.844,0,0,1-11.819,8.94l0.9,1.26a30.444,30.444,0,0,0,13.259-7.92,42.791,42.791,0,0,0,9-15,3.05,3.05,0,0,1,1.38-1.8,1.234,1.234,0,0,0,.72-1.14,3.543,3.543,0,0,0-1.62-2.28,8.207,8.207,0,0,0-5.7-1.92Zm45.241-18.6c3.42,1.5,3.66,1.86,4.379,6.6,0.18,1.62.42,3.24,0.6,4.86-2.4.3-5.1,0.72-7.679,1.14-1.26.12-2.22,0.18-2.58,0.18-1.26,0-1.98-.3-4.08-2.22l-1.02.84a12.52,12.52,0,0,0,2.16,3.78,3.714,3.714,0,0,0,2.4,1.68,5.3,5.3,0,0,0,1.86-.48c0.72-.24,1.26-0.42,1.92-0.6,2.52-.54,4.92-0.96,7.379-1.32,0.42,3.24.84,6.66,1.2,9.78-4.079.54-7.8,1.2-11.7,1.86-1.86.24-3.18,0.42-3.9,0.42-1.2,0-2.4-.24-4.68-1.92l-0.9.96a16.25,16.25,0,0,0,2.58,3.72c1.02,1.08,1.86,1.8,2.7,1.8a3.91,3.91,0,0,0,1.8-.66,13.13,13.13,0,0,1,3.36-1.14,97.905,97.905,0,0,1,11.1-1.98c0.36,3.06.72,6.06,0.96,8.88,0.06,0.66.12,1.8,0.12,2.4,0,0.96-.06,1.98-0.06,2.94a5.282,5.282,0,0,0,.18,1.56c0.48,1.86,1.98,3.42,3.12,3.42s1.68-.54,1.68-2.22a16.127,16.127,0,0,0-.3-2.64c-0.3-1.86-.54-3.36-0.84-5.28-0.48-3.12-.9-6.3-1.32-9.54,4.74-.54,8.1-0.9,10.02-0.96,1.26-.06,2.82-0.18,4.38-0.12,1.56,0.12,3.06.3,3.54,0.3,1.2,0,1.8-.36,1.8-1.02,0-.84-0.66-1.56-2.219-2.52a6.147,6.147,0,0,0-2.76-1.2,3.6,3.6,0,0,0-1.44.54,7.159,7.159,0,0,1-2.88.66c-2.94.36-6.06,0.66-10.8,1.26-0.42-3.18-.84-6.66-1.26-9.78,2.34-.36,4.74-0.66,6.6-0.84,1.32-.12,2.82-0.24,4.14-0.24,0.96,0,1.74.06,2.7,0.06,1.08,0,1.56-.48,1.56-1.2s-0.9-1.44-2.16-2.04a6.584,6.584,0,0,0-2.82-.84,3.388,3.388,0,0,0-1.56.42,8.242,8.242,0,0,1-2.16.66c-2.28.36-4.38,0.66-6.66,0.96-0.12-1.14-.24-2.34-0.36-3.54-0.06-.72-0.12-1.32-0.12-1.74a3.758,3.758,0,0,1,.36-1.62,2.816,2.816,0,0,0,.42-1.2c0-.66-0.42-1.26-1.92-2.34a9.205,9.205,0,0,0-5.4-1.74,5.182,5.182,0,0,0-.9.06ZM424.18,52.7c12.06-1.98,21.719-10.32,21.719-21.419,0-10.5-8.219-18.959-22.739-18.959-14.339,0-26.219,10.32-26.219,23.459a17.944,17.944,0,0,0,2.52,9.48c1.92,3.06,3.66,4.08,5.04,4.08,1.92,0,3.54-1.62,6.24-6.42,3.78-6.84,7.139-13.259,10.2-18.9,0.54-1.02.9-1.62,1.14-2.04a3.679,3.679,0,0,0,.66-1.8,3.651,3.651,0,0,0-1.08-2.22,25.978,25.978,0,0,0-2.88-2.88,25.907,25.907,0,0,1,4.2-.36c10.5,0,18.12,6.72,18.12,15.959,0,10.5-7.26,16.979-17.58,20.519Zm-19.739-8.04a3.063,3.063,0,0,1-2.28-1.56,13.014,13.014,0,0,1-2.16-7.68c0-9.9,7.8-17.519,16.92-19.919,1.259,2.1,1.5,3.18,1.5,3.96a7.955,7.955,0,0,1-.839,2.94c-2.94,5.88-6.48,12.66-9.78,18.6C406.181,43.884,405.281,44.664,404.441,44.664Zm88.5-15.119-6.24,1.92v-4.38c1.98-.54,2.4-0.84,2.4-1.44,0-.72-1.02-1.2-6.36-2.16l-0.3.36a10.515,10.515,0,0,1,.84,4.92v3.72l-0.36.12-5.579,1.32,1.679,2.4,4.26-1.62v8.64l-0.12,8.04c0,4.62,1.2,6.06,11.1,6.06,9.119,0,11.579-.42,13.259-0.9,1.44-.42,2.04-1.08,2.04-1.86a1.434,1.434,0,0,0-.96-1.32c-1.08-.54-1.44-0.9-1.44-1.68,0-1.32.06-2.82,0.12-4.98l-1.44-.18c-0.72,3.6-1.38,5.46-2.1,6.3-0.779.96-1.859,1.32-9.839,1.32-6.72,0-7.2-.66-7.2-3.06v-17.4l6.24-1.92v9.6l-0.3,9.18,3.3-.12,0.6-.6-0.24-8.58v-10.5l6.66-2.04v12.18c0,1.44-.18,1.74-1.14,1.74a16.381,16.381,0,0,1-3.96-.6l-0.3,1.44c2.52,1.14,2.88,1.74,3.12,3.54,4.259-.18,5.819-1.68,5.819-5.64l-0.12-5.88v-6c1.32-.66,2.16-1.14,2.16-1.74,0-.72-0.6-1.2-3.54-3.36h-0.84l-1.739,2.28-6.12,1.86v-6.84c1.8-.48,2.34-0.78,2.34-1.38,0-.78-1.08-1.08-6.12-1.92l-0.3.36a11.888,11.888,0,0,1,.72,4.8v6ZM479.38,16.525v-1.44l-3.719-3.84h-0.84l-2.58,3.24h-4.02V7.766c2.22-.54,2.76-0.84,2.76-1.56,0-1.02-1.2-1.38-7.26-2.4l-0.3.36a10.211,10.211,0,0,1,.96,5.04v5.28h-4.56l-4.8-.36,0.66,2.76,4.14-.36h3.72c-0.06,21.539-2.4,30.839-9.24,40.2l1.14,0.9c7.2-7.44,10.5-15.119,11.58-29.519h5.7c-0.06,9.24-.48,15.779-1.38,20.819-0.6,3.42-2.1,4.32-3.9,4.32a33.046,33.046,0,0,1-5.46-.72l-0.24,1.44c3.36,1.14,3.9,1.8,4.08,3.78,5.4,0,8.34-2.04,9.24-8.16a166.311,166.311,0,0,0,1.44-20.639c1.56-.72,1.92-1.02,1.92-1.56,0-.6-0.3-1.02-3.54-3.54h-0.84l-1.8,2.22h-5.1c0.18-3.18.18-6.36,0.24-9.54h12Zm6.96-2.52a41.794,41.794,0,0,0,2.58-6.06c1.86-.18,2.46-0.54,2.46-1.2,0-.72-1.02-1.44-5.94-3l-0.48.24a15.439,15.439,0,0,1-.36,3.3,37.055,37.055,0,0,1-7.319,15.959l1.08,0.96a33.7,33.7,0,0,0,6.839-8.16h24.659v-1.44l-4.08-4.2h-0.84l-2.819,3.6H486.34Zm55.08,35.7H521.081l-4.92-.36,0.72,2.76,4.2-.36h50.158V50.3l-4.56-4.74h-0.84l-3.3,4.14H545.62V14.185h21.059v-1.44L562.3,8.186h-0.84l-3.18,3.96H526l-4.92-.36,0.72,2.76,4.2-.36H541.42V49.7Zm65.52-22.979h12.6v1.86l3.36-.12,0.6-.6-0.18-5.34v-2.34c1.5-.6,2.039-1.02,2.039-1.62,0-.72-0.659-1.26-3.839-3.66h-0.84l-1.92,2.22H606.94v-4.26h24.239v-1.44l-4.08-4.2h-0.84l-2.879,3.6H606.94V7.466c2.22-.54,2.76-0.84,2.76-1.56,0-.96-1.14-1.38-7.26-2.28l-0.3.36a10.211,10.211,0,0,1,.96,5.04v1.8H583.481l-4.92-.36,0.66,2.76,4.26-.36H603.1v4.26H591.641a54.744,54.744,0,0,0-4.98-2.4l-0.36.36a17.273,17.273,0,0,1,.72,5.76v2.58l-0.24,5.52,3.36-.12,0.6-.6v-1.5H603.1v4.86H589.481l-4.92-.36,0.72,2.76,4.2-.36H603.1v4.8H582.641l-4.92-.36,0.72,2.76,4.2-.36H603.1V45.5H589.6l-4.92-.36,0.72,2.76,4.2-.36h13.5v4.5a1.628,1.628,0,0,1-1.86,1.86,45.663,45.663,0,0,1-7.079-.78l-0.3,1.38c4.14,1.38,4.98,2.28,5.16,4.44,5.939-.18,8.159-1.98,8.159-5.58L607,47.544h13.26V50.6l3.6-.12,0.6-.6-0.36-7.86v-1.56h8.879v-1.44l-3.6-3.72h-0.84l-2.4,3.12H624.1v-3.9c1.439-.54,1.679-0.96,1.679-1.5,0-.72-0.24-1.14-3.419-3.6h-0.84l-1.86,2.16H606.94v-4.86Zm0-2.04v-5.52h12.6v5.52h-12.6Zm-3.84,0H590.741v-5.52H603.1v5.52Zm3.84,8.94h13.32v4.8H606.94v-4.8Zm0,11.88v-5.04h13.32V45.5H606.94Zm55.2-24.359a85.188,85.188,0,0,0,2.639-10.02h11.16V9.686l-3.6-3.72H671.5l-2.46,3.12h-10.5l-4.92-.36,0.66,2.76,4.26-.36h2.04c-0.96,9.78-4.8,19.739-10.32,26.339l1.2,0.84a34.35,34.35,0,0,0,6.24-7.56,21.142,21.142,0,0,1,3.84,5.58c0.54,1.5,1.019,2.04,2.1,2.04a1.787,1.787,0,0,0,.84-0.3c-3.3,7.5-8.219,13.319-14.879,18.659l1.02,1.02c12.659-7.86,18.6-17.759,21.839-33.839,1.56-.42,2.22-0.72,2.22-1.32s-0.9-1.38-3.9-3.6h-0.84l-1.68,2.16h-6.119Zm6.479,2.04a62.631,62.631,0,0,1-3.3,12.84c-0.36-3.12-4.379-5.4-6.839-6.6a45.623,45.623,0,0,0,2.94-6.24h7.2ZM648.041,4.046a23.012,23.012,0,0,1-.9,5.58,62.572,62.572,0,0,1-10.2,22.079l1.139,0.9a59.118,59.118,0,0,0,6.18-8.1l-0.12,9.54v10.8l-0.3,14.039,3.3-.12,0.6-.6V22.705c2.16-.42,2.52-0.78,2.52-1.38s-0.84-1.08-3.24-1.68a86.659,86.659,0,0,0,4.74-11.339c1.98-.36,2.52-0.6,2.52-1.32,0-.9-1.08-1.44-5.82-3.12Zm42.3,4.2c2.22-.54,2.76-0.84,2.76-1.56,0-1.02-.96-1.38-7.079-2.4l-0.3.36a10.211,10.211,0,0,1,.96,5.04V52.524a1.61,1.61,0,0,1-1.8,1.86,41.55,41.55,0,0,1-6.72-.78l-0.3,1.38c3.9,1.38,4.86,2.04,4.86,4.08,5.819-.18,7.919-1.98,7.919-5.58l-0.3-15.539V8.246ZM677.02,46.584l3.36-.12,0.6-.6L680.8,32.545V15.025c2.22-.54,2.58-0.84,2.58-1.56,0-1.02-1.2-1.38-6.84-2.4l-0.3.36a10.211,10.211,0,0,1,.96,5.04V32.545Z" transform="translate(0.156 4.859)"/>
</svg>
