<svg xmlns="http://www.w3.org/2000/svg" width="727" height="72" viewBox="0 0 727 72">
  <defs>
    <style>
      .cls-1 {
        fill-rule: evenodd;
      }
    </style>
  </defs>
  <path id="人工竹垣の施工事例" class="cls-1" d="M119.961,9.446c2.1-.54,3-0.96,3-1.74,0-1.02-1.5-1.62-7.679-2.64l-0.3.36a16.611,16.611,0,0,1,.48,4.38c0,1.38-.06,2.88-0.24,4.74-1.26,11.46-3.72,19.019-7.26,25.259a46.354,46.354,0,0,1-16.8,17.039l0.72,1.26c9.719-4.62,14.879-10.02,19.139-16.379,3.6-5.34,6.72-12.42,8.34-25.859C121.1,29,124.7,36.924,127.82,42.024a47.84,47.84,0,0,0,14.94,15.359c1.08-1.92,2.219-2.76,4.319-2.82l0.36-1.26c-8.519-4.38-13.739-9.42-17.459-15-3.24-4.92-7.68-12.359-10.079-28.2ZM178.221,49.7h-20.34l-4.919-.36,0.72,2.76,4.2-.36h50.158V50.3l-4.559-4.74h-0.84l-3.3,4.14H182.42V14.185h21.06v-1.44l-4.38-4.56h-0.84l-3.18,3.96H162.8l-4.92-.36,0.72,2.76,4.2-.36h15.42V49.7Zm52.5-30.059H242.3v-1.44l-4.08-4.32h-0.84l-2.88,3.72h-10.98A90.7,90.7,0,0,0,227,8.186c1.98,0.06,2.82-.36,2.82-1.08,0-.78-0.9-1.38-6.42-3.3l-0.42.18a16.341,16.341,0,0,1-.54,4.68A74.743,74.743,0,0,1,213.2,31.225l1.14,0.9a58.29,58.29,0,0,0,8.219-12.48h4.26V44.124l-0.3,14.04,3.9-.12,0.6-.6-0.3-13.32V19.645Zm17.159-2.04a90.7,90.7,0,0,0,3.48-9.42c1.98,0.06,2.82-.36,2.82-1.08,0-.78-0.9-1.38-6.42-3.3l-0.42.18a16.341,16.341,0,0,1-.54,4.68,74.743,74.743,0,0,1-9.239,22.559l1.14,0.9a58.29,58.29,0,0,0,8.219-12.48h8.34V51.5a1.349,1.349,0,0,1-1.56,1.56,42.78,42.78,0,0,1-7.2-.96l-0.36,1.38c3.9,1.44,4.68,2.4,4.86,4.62,6.06-.18,8.34-1.86,8.34-5.28L259.1,39.564V19.645h10.679v-1.44l-4.079-4.32h-0.84l-2.88,3.72h-14.1Zm71.58,27v3.78l3.6-.12,0.6-.6-0.3-11.22v-15c1.5-.6,2.04-1.02,2.04-1.62s-0.66-1.2-3.78-3.72h-0.84l-1.92,2.4h-14.7a45.254,45.254,0,0,0-5.1-2.64l-0.36.36a17.121,17.121,0,0,1,.78,6V35.3l-0.3,13.38,3.54-.12,0.6-.6V44.6H319.46Zm0-2.04H303.321V31.945H319.46v10.62Zm0-12.66H303.321v-9.36H319.46V29.9ZM283.4,43.824c-1.08.3-2.16,0.6-3.36,0.9a24.9,24.9,0,0,1-4.859.78l-0.24.42c3.24,5.04,3.72,5.52,4.5,5.52,0.72,0,.96-0.6,1.14-2.64a86.54,86.54,0,0,0,15.72-8.04l-0.6-1.32c-3.36,1.32-6,2.34-8.58,3.18V23.545h8.94v-1.44l-3.6-3.72h-0.84l-2.4,3.12h-2.1V8.966c2.22-.6,2.76-0.9,2.76-1.56,0-1.02-1.26-1.38-7.14-2.4l-0.3.36a10.211,10.211,0,0,1,.96,5.04v11.1h-2.82l-4.919-.36,0.72,2.76,4.2-.36h2.82V43.824ZM329,10.286V8.846l-4.139-4.32h-0.84l-2.94,3.72H299.841l-4.92-.36,0.72,2.76,4.2-.36H329ZM295.4,53.844l-4.92-.36,0.72,2.76,4.2-.36h35.4v-1.44l-4.319-4.5h-0.84l-3.06,3.9H295.4ZM366.98,52.7c12.06-1.98,21.72-10.32,21.72-21.419,0-10.5-8.22-18.959-22.74-18.959-14.339,0-26.218,10.32-26.218,23.459a17.944,17.944,0,0,0,2.519,9.48c1.92,3.06,3.66,4.08,5.04,4.08,1.92,0,3.54-1.62,6.24-6.42,3.78-6.84,7.14-13.259,10.2-18.9,0.54-1.02.9-1.62,1.14-2.04a3.687,3.687,0,0,0,.659-1.8,3.655,3.655,0,0,0-1.079-2.22,25.978,25.978,0,0,0-2.88-2.88,25.9,25.9,0,0,1,4.2-.36c10.5,0,18.12,6.72,18.12,15.959,0,10.5-7.26,16.979-17.58,20.519Zm-19.739-8.04a3.063,3.063,0,0,1-2.28-1.56,13.014,13.014,0,0,1-2.16-7.68c0-9.9,7.8-17.519,16.92-19.919,1.26,2.1,1.5,3.18,1.5,3.96a7.94,7.94,0,0,1-.84,2.94c-2.94,5.88-6.48,12.66-9.78,18.6C348.981,43.884,348.081,44.664,347.241,44.664Zm88.5-15.119-6.24,1.92v-4.38c1.98-.54,2.4-0.84,2.4-1.44,0-.72-1.02-1.2-6.359-2.16l-0.3.36a10.515,10.515,0,0,1,.84,4.92v3.72l-0.36.12-5.58,1.32,1.68,2.4,4.26-1.62v8.64l-0.12,8.04c0,4.62,1.2,6.06,11.1,6.06,9.12,0,11.58-.42,13.26-0.9,1.439-.42,2.039-1.08,2.039-1.86a1.434,1.434,0,0,0-.96-1.32c-1.079-.54-1.439-0.9-1.439-1.68,0-1.32.06-2.82,0.12-4.98l-1.44-.18c-0.72,3.6-1.38,5.46-2.1,6.3-0.78.96-1.86,1.32-9.84,1.32-6.72,0-7.2-.66-7.2-3.06v-17.4l6.24-1.92v9.6l-0.3,9.18,3.3-.12,0.6-.6-0.24-8.58v-10.5l6.66-2.04v12.18c0,1.44-.18,1.74-1.14,1.74a16.381,16.381,0,0,1-3.96-.6l-0.3,1.44c2.52,1.14,2.88,1.74,3.12,3.54,4.26-.18,5.82-1.68,5.82-5.64l-0.12-5.88v-6c1.32-.66,2.159-1.14,2.159-1.74,0-.72-0.6-1.2-3.539-3.36h-0.84l-1.74,2.28-6.12,1.86v-6.84c1.8-.48,2.34-0.78,2.34-1.38,0-.78-1.08-1.08-6.12-1.92l-0.3.36a11.888,11.888,0,0,1,.72,4.8v6ZM422.181,16.525v-1.44l-3.72-3.84h-0.84l-2.58,3.24h-4.02V7.766c2.22-.54,2.76-0.84,2.76-1.56,0-1.02-1.2-1.38-7.26-2.4l-0.3.36a10.211,10.211,0,0,1,.96,5.04v5.28h-4.56l-4.8-.36,0.66,2.76,4.139-.36h3.72c-0.06,21.539-2.4,30.839-9.239,40.2l1.14,0.9c7.2-7.44,10.5-15.119,11.579-29.519h5.7c-0.06,9.24-.48,15.779-1.38,20.819-0.6,3.42-2.1,4.32-3.9,4.32a33.046,33.046,0,0,1-5.46-.72l-0.24,1.44c3.36,1.14,3.9,1.8,4.08,3.78,5.4,0,8.34-2.04,9.24-8.16a166.311,166.311,0,0,0,1.44-20.639c1.56-.72,1.92-1.02,1.92-1.56,0-.6-0.3-1.02-3.54-3.54h-0.84l-1.8,2.22h-5.1c0.18-3.18.18-6.36,0.24-9.54h12Zm6.959-2.52a41.794,41.794,0,0,0,2.58-6.06c1.86-.18,2.46-0.54,2.46-1.2,0-.72-1.02-1.44-5.94-3l-0.48.24a15.439,15.439,0,0,1-.36,3.3,37.044,37.044,0,0,1-7.319,15.959l1.08,0.96A33.658,33.658,0,0,0,428,16.045h24.659v-1.44l-4.079-4.2h-0.84l-2.82,3.6H429.14Zm55.081,35.7h-20.34l-4.919-.36,0.72,2.76,4.2-.36h50.158V50.3l-4.559-4.74h-0.84l-3.3,4.14H488.42V14.185h21.06v-1.44l-4.38-4.56h-0.84l-3.18,3.96H468.8l-4.92-.36,0.72,2.76,4.2-.36h15.42V49.7ZM549.74,26.725h12.6v1.86l3.36-.12,0.6-.6-0.18-5.34v-2.34c1.5-.6,2.04-1.02,2.04-1.62,0-.72-0.66-1.26-3.84-3.66h-0.84l-1.92,2.22H549.74v-4.26h24.239v-1.44l-4.079-4.2h-0.84l-2.88,3.6H549.74V7.466c2.22-.54,2.76-0.84,2.76-1.56,0-.96-1.14-1.38-7.259-2.28l-0.3.36a10.211,10.211,0,0,1,.96,5.04v1.8h-19.62l-4.919-.36,0.66,2.76,4.259-.36H545.9v4.26h-11.46a54.744,54.744,0,0,0-4.98-2.4l-0.36.36a17.273,17.273,0,0,1,.72,5.76v2.58l-0.24,5.52,3.36-.12,0.6-.6v-1.5H545.9v4.86h-13.62l-4.92-.36,0.72,2.76,4.2-.36H545.9v4.8h-20.46l-4.919-.36,0.72,2.76,4.2-.36H545.9V45.5H532.4l-4.92-.36,0.72,2.76,4.2-.36h13.5v4.5a1.628,1.628,0,0,1-1.86,1.86,45.659,45.659,0,0,1-7.08-.78l-0.3,1.38c4.14,1.38,4.98,2.28,5.16,4.44,5.94-.18,8.159-1.98,8.159-5.58l-0.18-5.82h13.26V50.6l3.6-.12,0.6-.6-0.36-7.86v-1.56h8.879v-1.44l-3.6-3.72h-0.84l-2.4,3.12H566.9v-3.9c1.44-.54,1.68-0.96,1.68-1.5,0-.72-0.24-1.14-3.42-3.6h-0.84l-1.86,2.16H549.74v-4.86Zm0-2.04v-5.52h12.6v5.52h-12.6Zm-3.839,0h-12.36v-5.52H545.9v5.52Zm3.839,8.94h13.32v4.8H549.74v-4.8Zm0,11.88v-5.04h13.32V45.5H549.74Zm55.2-24.359a85,85,0,0,0,2.64-10.02H618.74V9.686l-3.6-3.72H614.3l-2.46,3.12h-10.5l-4.92-.36,0.66,2.76,4.26-.36h2.04c-0.96,9.78-4.8,19.739-10.32,26.339l1.2,0.84a34.35,34.35,0,0,0,6.24-7.56,21.142,21.142,0,0,1,3.84,5.58c0.54,1.5,1.02,2.04,2.1,2.04a1.787,1.787,0,0,0,.84-0.3c-3.3,7.5-8.22,13.319-14.88,18.659l1.02,1.02c12.66-7.86,18.6-17.759,21.839-33.839,1.56-.42,2.22-0.72,2.22-1.32s-0.9-1.38-3.9-3.6h-0.84l-1.68,2.16h-6.119Zm6.479,2.04a62.632,62.632,0,0,1-3.3,12.84c-0.36-3.12-4.38-5.4-6.84-6.6a45.623,45.623,0,0,0,2.94-6.24h7.2ZM590.841,4.046a23.012,23.012,0,0,1-.9,5.58,62.572,62.572,0,0,1-10.2,22.079l1.14,0.9a59.029,59.029,0,0,0,6.179-8.1l-0.12,9.54v10.8l-0.3,14.039,3.3-.12,0.6-.6V22.705c2.16-.42,2.52-0.78,2.52-1.38s-0.84-1.08-3.24-1.68a86.659,86.659,0,0,0,4.74-11.339c1.98-.36,2.52-0.6,2.52-1.32,0-.9-1.08-1.44-5.82-3.12Zm42.3,4.2c2.219-.54,2.759-0.84,2.759-1.56,0-1.02-.96-1.38-7.079-2.4l-0.3.36a10.211,10.211,0,0,1,.96,5.04V52.524a1.61,1.61,0,0,1-1.8,1.86,41.55,41.55,0,0,1-6.72-.78l-0.3,1.38c3.9,1.38,4.86,2.04,4.86,4.08,5.82-.18,7.92-1.98,7.92-5.58l-0.3-15.539V8.246ZM619.82,46.584l3.36-.12,0.6-.6L623.6,32.545V15.025c2.22-.54,2.58-0.84,2.58-1.56,0-1.02-1.2-1.38-6.84-2.4l-0.3.36a10.211,10.211,0,0,1,.96,5.04V32.545Z" transform="translate(-0.031 4.656)"/>
</svg>
